<svg xmlns="http://www.w3.org/2000/svg" xmlns:xlink="http://www.w3.org/1999/xlink" width="605.88" height="605.72">
  <text x="2121.55" y="-10523.72" font-size="14.82" font-weight="400" style="font-weight:400;font-size:14.81700039px;line-height:0%;font-family:Arial;-inkscape-font-specification:Arial;text-align:start" transform="rotate(180 .79 .38)">
    <textPath font-size="56" font-weight="700" startOffset="50%" style="font-weight:700;font-size:56px;line-height:100%;-inkscape-font-specification:'Arial Bold';text-align:center;text-anchor:middle" xlink:href="#path5818"/>

  </text>
  <text x="19148.85" y="-8737.29" font-size="14.82" font-weight="400" style="font-weight:400;font-size:14.81700039px;line-height:0%;font-family:Arial;-inkscape-font-specification:Arial;text-align:start" transform="rotate(180 .79 .38)">
    <textPath font-size="56" font-weight="700" startOffset="50%" style="font-weight:700;font-size:56px;line-height:100%;-inkscape-font-specification:'Arial Bold';text-align:center;text-anchor:middle" xlink:href="#path5818"/>

  </text>
  <text x="-8232.42" y="-14157.06" font-size="14.82" font-weight="400" style="font-weight:400;font-size:14.81700039px;line-height:0%;font-family:Arial;-inkscape-font-specification:Arial;text-align:start" transform="rotate(180 .79 .38)">
    <textPath font-weight="700" startOffset="50%" style="font-weight:700;line-height:100%;-inkscape-font-specification:'Arial Bold';text-align:center;text-anchor:middle" xlink:href="#path5818"/>

  </text>
  <text x="2700.01" y="-12723.82" font-size="14.82" font-weight="400" style="font-weight:400;font-size:14.81700039px;line-height:0%;font-family:Arial;-inkscape-font-specification:Arial;text-align:start" transform="scale(-1)">
    <textPath font-weight="700" startOffset="50%" style="font-weight:700;line-height:100%;-inkscape-font-specification:'Arial Bold';text-align:center;text-anchor:middle" xlink:href="#path5818"/>

  </text>
  <text x="1000.88" y="-11046.64" font-size="9.93" font-weight="400" style="font-weight:400;font-size:9.93400002px;line-height:0%;font-family:Arial;-inkscape-font-specification:Arial;text-align:start" transform="scale(-1)">
    <textPath font-size="56" font-weight="700" startOffset="50%" style="font-weight:700;font-size:56px;line-height:100%;-inkscape-font-specification:'Arial Bold';text-align:center;text-anchor:middle" xlink:href="#path5818"/>

  </text>
  <text x="18028.18" y="-9260.21" font-size="9.93" font-weight="400" style="font-weight:400;font-size:9.93400002px;line-height:0%;font-family:Arial;-inkscape-font-specification:Arial;text-align:start" transform="rotate(180 0 0)">
    <textPath font-size="56" font-weight="700" startOffset="50%" style="font-weight:700;font-size:56px;line-height:100%;-inkscape-font-specification:'Arial Bold';text-align:center;text-anchor:middle" xlink:href="#path5818"/>

  </text>
  <text x="-9353.09" y="-14679.98" font-size="9.93" font-weight="400" style="font-weight:400;font-size:9.93400002px;line-height:0%;font-family:Arial;-inkscape-font-specification:Arial;text-align:start" transform="rotate(180 0 0)">
    <textPath font-weight="700" startOffset="50%" style="font-weight:700;line-height:100%;-inkscape-font-specification:'Arial Bold';text-align:center;text-anchor:middle" xlink:href="#path5818"/>

  </text>
  <text x="1580.91" y="-13245.98" font-size="9.93" font-weight="400" style="font-weight:400;font-size:9.93400002px;line-height:0%;font-family:Arial;-inkscape-font-specification:Arial;text-align:start" transform="rotate(180 0 0)">
    <textPath font-weight="700" startOffset="50%" style="font-weight:700;line-height:100%;-inkscape-font-specification:'Arial Bold';text-align:center;text-anchor:middle" xlink:href="#path5818"/>

  </text>
  <text x="-1191.39" y="-321.79" font-size="5.2" font-weight="400" style="font-weight:400;font-size:5.19500017px;line-height:0%;font-family:Arial;-inkscape-font-specification:Arial;text-align:start" transform="rotate(180 0 0)">
    <textPath font-size="56" font-weight="700" startOffset="50%" style="font-weight:700;font-size:56px;line-height:100%;-inkscape-font-specification:'Arial Bold';text-align:center;text-anchor:middle" xlink:href="#path5818"/>

  </text>
  <text x="-965.47" y="195.61" font-size="13.61" font-weight="400" style="font-weight:400;font-size:13.6079998px;line-height:0%;font-family:Arial;-inkscape-font-specification:Arial;text-align:start" transform="rotate(180 0 0)">
    <textPath font-size="56" font-weight="700" startOffset="50%" style="font-weight:700;font-size:56px;line-height:100%;-inkscape-font-specification:'Arial Bold';text-align:center;text-anchor:middle" xlink:href="#path5818"/>

  </text>
  <text x="841.52" y="-10272.65" style="font-style:normal;font-variant:normal;font-weight:400;font-stretch:normal;font-size:14.81759071px;line-height:0%;font-family:Arial;-inkscape-font-specification:Arial;text-align:start;writing-mode:lr-tb;text-anchor:start;fill:#000;fill-opacity:1;stroke:none;stroke-width:1px;stroke-linecap:butt;stroke-linejoin:miter;stroke-opacity:1" transform="rotate(180 0 0)">
    <textPath startOffset="50%" style="font-style:normal;font-variant:normal;font-weight:700;font-stretch:normal;font-size:56px;line-height:100%;font-family:Arial;-inkscape-font-specification:'Arial Bold';text-align:center;writing-mode:lr-tb;text-anchor:middle" xlink:href="#path5818"/>

  </text>
  <text x="17868.82" y="-8486.22" style="font-style:normal;font-variant:normal;font-weight:400;font-stretch:normal;font-size:14.81759071px;line-height:0%;font-family:Arial;-inkscape-font-specification:Arial;text-align:start;writing-mode:lr-tb;text-anchor:start;fill:#000;fill-opacity:1;stroke:none;stroke-width:1px;stroke-linecap:butt;stroke-linejoin:miter;stroke-opacity:1" transform="scale(-1)">
    <textPath startOffset="50%" style="font-style:normal;font-variant:normal;font-weight:700;font-stretch:normal;font-size:56px;line-height:100%;font-family:Arial;-inkscape-font-specification:'Arial Bold';text-align:center;writing-mode:lr-tb;text-anchor:middle" xlink:href="#path5818"/>

  </text>
  <text x="-9512.34" y="-13906.02" font-size="56" font-weight="400" style="font-weight:400;font-size:14.81759071px;line-height:0%;font-family:Arial;-inkscape-font-specification:Arial;text-align:start" transform="scale(-1)">
    <textPath font-weight="700" startOffset="50%" style="font-weight:700;line-height:100%;-inkscape-font-specification:'Arial Bold';text-align:center;text-anchor:middle" xlink:href="#path5818"/>

  </text>
  <text x="1421.66" y="-12472.03" font-size="56" font-weight="400" style="font-weight:400;font-size:14.81759071px;line-height:0%;font-family:Arial;-inkscape-font-specification:Arial;text-align:start" transform="scale(-1)">
    <textPath font-weight="700" startOffset="50%" style="font-weight:700;line-height:100%;-inkscape-font-specification:'Arial Bold';text-align:center;text-anchor:middle" xlink:href="#path5818"/>

  </text>
  <text x="-277.58" y="-10794.81" style="font-style:normal;font-variant:normal;font-weight:400;font-stretch:normal;font-size:9.93428421px;line-height:0%;font-family:Arial;-inkscape-font-specification:Arial;text-align:start;writing-mode:lr-tb;text-anchor:start;fill:#000;fill-opacity:1;stroke:none;stroke-width:1px;stroke-linecap:butt;stroke-linejoin:miter;stroke-opacity:1" transform="scale(-1)">
    <textPath startOffset="50%" style="font-style:normal;font-variant:normal;font-weight:700;font-stretch:normal;font-size:56px;line-height:100%;font-family:Arial;-inkscape-font-specification:'Arial Bold';text-align:center;writing-mode:lr-tb;text-anchor:middle" xlink:href="#path5818"/>

  </text>
  <text x="16749.72" y="-9008.38" style="font-style:normal;font-variant:normal;font-weight:400;font-stretch:normal;font-size:9.93428421px;line-height:0%;font-family:Arial;-inkscape-font-specification:Arial;text-align:start;writing-mode:lr-tb;text-anchor:start;fill:#000;fill-opacity:1;stroke:none;stroke-width:1px;stroke-linecap:butt;stroke-linejoin:miter;stroke-opacity:1" transform="scale(-1)">
    <textPath startOffset="50%" style="font-style:normal;font-variant:normal;font-weight:700;font-stretch:normal;font-size:56px;line-height:100%;font-family:Arial;-inkscape-font-specification:'Arial Bold';text-align:center;writing-mode:lr-tb;text-anchor:middle" xlink:href="#path5818"/>

  </text>
  <text x="-10631.44" y="-14428.18" font-size="56" font-weight="400" style="font-weight:400;font-size:9.93428421px;line-height:0%;font-family:Arial;-inkscape-font-specification:Arial;text-align:start" transform="scale(-1)">
    <textPath font-weight="700" startOffset="50%" style="font-weight:700;line-height:100%;-inkscape-font-specification:'Arial Bold';text-align:center;text-anchor:middle" xlink:href="#path5818"/>

  </text>
  <text x="302.45" y="-12994.16" font-size="56" font-weight="400" style="font-weight:400;font-size:9.93428421px;line-height:0%;font-family:Arial;-inkscape-font-specification:Arial;text-align:start" transform="scale(-1)">
    <textPath font-weight="700" startOffset="50%" style="font-weight:700;line-height:100%;-inkscape-font-specification:'Arial Bold';text-align:center;text-anchor:middle" xlink:href="#path5818"/>

  </text>
  <text x="-2469.74" y="-69.99" style="font-style:normal;font-variant:normal;font-weight:400;font-stretch:normal;font-size:5.19499683px;line-height:0%;font-family:Arial;-inkscape-font-specification:Arial;text-align:start;writing-mode:lr-tb;text-anchor:start;fill:#000;fill-opacity:1;stroke:none;stroke-width:1px;stroke-linecap:butt;stroke-linejoin:miter;stroke-opacity:1" transform="scale(-1)">
    <textPath startOffset="50%" style="font-style:normal;font-variant:normal;font-weight:700;font-stretch:normal;font-size:56px;line-height:100%;font-family:Arial;-inkscape-font-specification:'Arial Bold';text-align:center;writing-mode:lr-tb;text-anchor:middle" xlink:href="#path5818"/>

  </text>
  <text x="-2243.93" y="447.43" style="font-style:normal;font-variant:normal;font-weight:400;font-stretch:normal;font-size:13.60929203px;line-height:0%;font-family:Arial;-inkscape-font-specification:Arial;text-align:start;writing-mode:lr-tb;text-anchor:start;fill:#000;fill-opacity:1;stroke:none;stroke-width:1px;stroke-linecap:butt;stroke-linejoin:miter;stroke-opacity:1" transform="scale(-1)">
    <textPath startOffset="50%" style="font-style:normal;font-variant:normal;font-weight:700;font-stretch:normal;font-size:56px;line-height:100%;font-family:Arial;-inkscape-font-specification:'Arial Bold';text-align:center;writing-mode:lr-tb;text-anchor:middle" xlink:href="#path5818"/>

  </text>
  <text x="765.68" y="-10813.22" style="font-style:normal;font-variant:normal;font-weight:400;font-stretch:normal;font-size:14.81759071px;line-height:0%;font-family:Arial;-inkscape-font-specification:Arial;text-align:start;writing-mode:lr-tb;text-anchor:start;fill:#000;fill-opacity:1;stroke:none;stroke-width:1px;stroke-linecap:butt;stroke-linejoin:miter;stroke-opacity:1" transform="scale(-1)">
    <textPath startOffset="50%" style="font-style:normal;font-variant:normal;font-weight:700;font-stretch:normal;font-size:56px;line-height:100%;font-family:Arial;-inkscape-font-specification:'Arial Bold';text-align:center;writing-mode:lr-tb;text-anchor:middle" xlink:href="#path5818"/>

  </text>
  <text x="17792.98" y="-9026.79" style="font-style:normal;font-variant:normal;font-weight:400;font-stretch:normal;font-size:14.81759071px;line-height:0%;font-family:Arial;-inkscape-font-specification:Arial;text-align:start;writing-mode:lr-tb;text-anchor:start;fill:#000;fill-opacity:1;stroke:none;stroke-width:1px;stroke-linecap:butt;stroke-linejoin:miter;stroke-opacity:1" transform="scale(-1)">
    <textPath startOffset="50%" style="font-style:normal;font-variant:normal;font-weight:700;font-stretch:normal;font-size:56px;line-height:100%;font-family:Arial;-inkscape-font-specification:'Arial Bold';text-align:center;writing-mode:lr-tb;text-anchor:middle" xlink:href="#path5818"/>

  </text>
  <text x="-7514.68" y="-15434.8" font-size="56" font-weight="400" style="font-weight:400;font-size:14.81759071px;line-height:0%;font-family:Arial;-inkscape-font-specification:Arial;text-align:start" transform="rotate(180 1036.8 -494.12)">
    <textPath font-weight="700" startOffset="50%" style="font-weight:700;line-height:100%;-inkscape-font-specification:'Arial Bold';text-align:center;text-anchor:middle" xlink:href="#path5818"/>

  </text>
  <text x="1347.28" y="-13011.81" font-size="56" font-weight="400" style="font-weight:400;font-size:14.81759071px;line-height:0%;font-family:Arial;-inkscape-font-specification:Arial;text-align:start" transform="rotate(180 .79 .38)">
    <textPath font-weight="700" startOffset="50%" style="font-weight:700;line-height:100%;-inkscape-font-specification:'Arial Bold';text-align:center;text-anchor:middle" xlink:href="#path5818"/>

  </text>
  <text x="-351.85" y="-11334.63" style="font-style:normal;font-variant:normal;font-weight:400;font-stretch:normal;font-size:9.93428421px;line-height:0%;font-family:Arial;-inkscape-font-specification:Arial;text-align:start;writing-mode:lr-tb;text-anchor:start;fill:#000;fill-opacity:1;stroke:none;stroke-width:1px;stroke-linecap:butt;stroke-linejoin:miter;stroke-opacity:1" transform="rotate(180 .79 .38)">
    <textPath startOffset="50%" style="font-style:normal;font-variant:normal;font-weight:700;font-stretch:normal;font-size:56px;line-height:100%;font-family:Arial;-inkscape-font-specification:'Arial Bold';text-align:center;writing-mode:lr-tb;text-anchor:middle" xlink:href="#path5818"/>

  </text>
  <text x="16675.44" y="-9548.2" style="font-style:normal;font-variant:normal;font-weight:400;font-stretch:normal;font-size:9.93428421px;line-height:0%;font-family:Arial;-inkscape-font-specification:Arial;text-align:start;writing-mode:lr-tb;text-anchor:start;fill:#000;fill-opacity:1;stroke:none;stroke-width:1px;stroke-linecap:butt;stroke-linejoin:miter;stroke-opacity:1" transform="rotate(180 .79 .38)">
    <textPath startOffset="50%" style="font-style:normal;font-variant:normal;font-weight:700;font-stretch:normal;font-size:56px;line-height:100%;font-family:Arial;-inkscape-font-specification:'Arial Bold';text-align:center;writing-mode:lr-tb;text-anchor:middle" xlink:href="#path5818"/>

  </text>
  <text x="-8633.78" y="-15956.97" font-size="56" font-weight="400" style="font-weight:400;font-size:9.93428421px;line-height:0%;font-family:Arial;-inkscape-font-specification:Arial;text-align:start" transform="rotate(180 1036.8 -494.12)">
    <textPath font-weight="700" startOffset="50%" style="font-weight:700;line-height:100%;-inkscape-font-specification:'Arial Bold';text-align:center;text-anchor:middle" xlink:href="#path5818"/>

  </text>
  <text x="228.23" y="-13534.04" font-size="56" font-weight="400" style="font-weight:400;font-size:9.93428421px;line-height:0%;font-family:Arial;-inkscape-font-specification:Arial;text-align:start" transform="rotate(180 .79 .38)">
    <textPath font-weight="700" startOffset="50%" style="font-weight:700;line-height:100%;-inkscape-font-specification:'Arial Bold';text-align:center;text-anchor:middle" xlink:href="#path5818"/>

  </text>
  <text x="-2544.13" y="-609.78" style="font-style:normal;font-variant:normal;font-weight:400;font-stretch:normal;font-size:5.19499683px;line-height:0%;font-family:Arial;-inkscape-font-specification:Arial;text-align:start;writing-mode:lr-tb;text-anchor:start;fill:#000;fill-opacity:1;stroke:none;stroke-width:1px;stroke-linecap:butt;stroke-linejoin:miter;stroke-opacity:1" transform="rotate(180 .79 .38)">
    <textPath startOffset="50%" style="font-style:normal;font-variant:normal;font-weight:700;font-stretch:normal;font-size:56px;line-height:100%;font-family:Arial;-inkscape-font-specification:'Arial Bold';text-align:center;writing-mode:lr-tb;text-anchor:middle" xlink:href="#path5818"/>

  </text>
  <text x="-2318.15" y="-92.45" style="font-style:normal;font-variant:normal;font-weight:400;font-stretch:normal;font-size:13.60929203px;line-height:0%;font-family:Arial;-inkscape-font-specification:Arial;text-align:start;writing-mode:lr-tb;text-anchor:start;fill:#000;fill-opacity:1;stroke:none;stroke-width:1px;stroke-linecap:butt;stroke-linejoin:miter;stroke-opacity:1" transform="rotate(180 .79 .38)">
    <textPath startOffset="50%" style="font-style:normal;font-variant:normal;font-weight:700;font-stretch:normal;font-size:56px;line-height:100%;font-family:Arial;-inkscape-font-specification:'Arial Bold';text-align:center;writing-mode:lr-tb;text-anchor:middle" xlink:href="#path5818"/>

  </text>
  <text x="2945.22" y="-11902.41" style="font-style:normal;font-variant:normal;font-weight:400;font-stretch:normal;font-size:14.81759071px;line-height:0%;font-family:Arial;-inkscape-font-specification:Arial;text-align:start;writing-mode:lr-tb;text-anchor:start;fill:#000;fill-opacity:1;stroke:none;stroke-width:1px;stroke-linecap:butt;stroke-linejoin:miter;stroke-opacity:1" transform="rotate(180 1036.8 -494.12)">
    <textPath startOffset="50%" style="font-style:normal;font-variant:normal;font-weight:700;font-stretch:normal;font-size:56px;line-height:100%;font-family:Arial;-inkscape-font-specification:'Arial Bold';text-align:center;writing-mode:lr-tb;text-anchor:middle" xlink:href="#path5818"/>

  </text>
  <text x="17900.47" y="-9126.98" style="font-style:normal;font-variant:normal;font-weight:400;font-stretch:normal;font-size:14.81759071px;line-height:0%;font-family:Arial;-inkscape-font-specification:Arial;text-align:start;writing-mode:lr-tb;text-anchor:start;fill:#000;fill-opacity:1;stroke:none;stroke-width:1px;stroke-linecap:butt;stroke-linejoin:miter;stroke-opacity:1" transform="rotate(180 .79 .38)">
    <textPath startOffset="50%" style="font-style:normal;font-variant:normal;font-weight:700;font-stretch:normal;font-size:56px;line-height:100%;font-family:Arial;-inkscape-font-specification:'Arial Bold';text-align:center;writing-mode:lr-tb;text-anchor:middle" xlink:href="#path5818"/>

  </text>
  <text x="-7408.7" y="-15535.75" font-size="56" font-weight="400" style="font-weight:400;font-size:14.81759071px;line-height:0%;font-family:Arial;-inkscape-font-specification:Arial;text-align:start" transform="rotate(180 1036.8 -494.12)">
    <textPath font-weight="700" startOffset="50%" style="font-weight:700;line-height:100%;-inkscape-font-specification:'Arial Bold';text-align:center;text-anchor:middle" xlink:href="#path5818"/>

  </text>
  <text x="3525.3" y="-14101.75" font-size="56" font-weight="400" style="font-weight:400;font-size:14.81759071px;line-height:0%;font-family:Arial;-inkscape-font-specification:Arial;text-align:start" transform="rotate(180 1036.8 -494.12)">
    <textPath font-weight="700" startOffset="50%" style="font-weight:700;line-height:100%;-inkscape-font-specification:'Arial Bold';text-align:center;text-anchor:middle" xlink:href="#path5818"/>

  </text>
  <text x="1826.12" y="-12424.57" style="font-style:normal;font-variant:normal;font-weight:400;font-stretch:normal;font-size:9.93428421px;line-height:0%;font-family:Arial;-inkscape-font-specification:Arial;text-align:start;writing-mode:lr-tb;text-anchor:start;fill:#000;fill-opacity:1;stroke:none;stroke-width:1px;stroke-linecap:butt;stroke-linejoin:miter;stroke-opacity:1" transform="rotate(180 1036.8 -494.12)">
    <textPath startOffset="50%" style="font-style:normal;font-variant:normal;font-weight:700;font-stretch:normal;font-size:56px;line-height:100%;font-family:Arial;-inkscape-font-specification:'Arial Bold';text-align:center;writing-mode:lr-tb;text-anchor:middle" xlink:href="#path5818"/>

  </text>
  <text x="18853.47" y="-10638.14" style="font-style:normal;font-variant:normal;font-weight:400;font-stretch:normal;font-size:9.93428421px;line-height:0%;font-family:Arial;-inkscape-font-specification:Arial;text-align:start;writing-mode:lr-tb;text-anchor:start;fill:#000;fill-opacity:1;stroke:none;stroke-width:1px;stroke-linecap:butt;stroke-linejoin:miter;stroke-opacity:1" transform="rotate(180 1036.8 -494.12)">
    <textPath startOffset="50%" style="font-style:normal;font-variant:normal;font-weight:700;font-stretch:normal;font-size:56px;line-height:100%;font-family:Arial;-inkscape-font-specification:'Arial Bold';text-align:center;writing-mode:lr-tb;text-anchor:middle" xlink:href="#path5818"/>

  </text>
  <text x="-8527.8" y="-16057.91" font-size="56" font-weight="400" style="font-weight:400;font-size:9.93428421px;line-height:0%;font-family:Arial;-inkscape-font-specification:Arial;text-align:start" transform="rotate(180 1036.8 -494.12)">
    <textPath font-weight="700" startOffset="50%" style="font-weight:700;line-height:100%;-inkscape-font-specification:'Arial Bold';text-align:center;text-anchor:middle" xlink:href="#path5818"/>

  </text>
  <text x="2406.09" y="-14623.84" font-size="56" font-weight="400" style="font-weight:400;font-size:9.93428421px;line-height:0%;font-family:Arial;-inkscape-font-specification:Arial;text-align:start" transform="rotate(180 1036.8 -494.12)">
    <textPath font-weight="700" startOffset="50%" style="font-weight:700;line-height:100%;-inkscape-font-specification:'Arial Bold';text-align:center;text-anchor:middle" xlink:href="#path5818"/>

  </text>
  <text x="-366.1" y="-1699.72" style="font-style:normal;font-variant:normal;font-weight:400;font-stretch:normal;font-size:5.19499683px;line-height:0%;font-family:Arial;-inkscape-font-specification:Arial;text-align:start;writing-mode:lr-tb;text-anchor:start;fill:#000;fill-opacity:1;stroke:none;stroke-width:1px;stroke-linecap:butt;stroke-linejoin:miter;stroke-opacity:1" transform="rotate(180 1036.8 -494.12)">
    <textPath startOffset="50%" style="font-style:normal;font-variant:normal;font-weight:700;font-stretch:normal;font-size:56px;line-height:100%;font-family:Arial;-inkscape-font-specification:'Arial Bold';text-align:center;writing-mode:lr-tb;text-anchor:middle" xlink:href="#path5818"/>

  </text>
  <text x="-140.16" y="-1182.36" style="font-style:normal;font-variant:normal;font-weight:400;font-stretch:normal;font-size:13.60929203px;line-height:0%;font-family:Arial;-inkscape-font-specification:Arial;text-align:start;writing-mode:lr-tb;text-anchor:start;fill:#000;fill-opacity:1;stroke:none;stroke-width:1px;stroke-linecap:butt;stroke-linejoin:miter;stroke-opacity:1" transform="rotate(180 1036.8 -494.12)">
    <textPath startOffset="50%" style="font-style:normal;font-variant:normal;font-weight:700;font-stretch:normal;font-size:56px;line-height:100%;font-family:Arial;-inkscape-font-specification:'Arial Bold';text-align:center;writing-mode:lr-tb;text-anchor:middle" xlink:href="#path5818"/>

  </text>
  <text x="2640.06" y="-5072.66" font-size="56" font-weight="400" style="font-weight:400;font-size:2.10657668px;line-height:0%;font-family:Arial;-inkscape-font-specification:Arial;text-align:start" transform="rotate(180 1036.8 -494.12)">
    <textPath font-weight="700" startOffset="50%" style="font-weight:700;line-height:100%;-inkscape-font-specification:'Arial Bold';text-align:center;text-anchor:middle" xlink:href="#path5818"/>

  </text>
  <text x="11855.17" y="-2344.05" font-size="56" font-weight="400" style="font-weight:400;font-size:2.10657668px;line-height:0%;font-family:Arial;-inkscape-font-specification:Arial;text-align:start" transform="rotate(180 1036.8 -494.12)">
    <textPath font-weight="700" startOffset="50%" style="font-weight:700;line-height:100%;-inkscape-font-specification:'Arial Bold';text-align:center;text-anchor:middle" xlink:href="#path5818"/>

  </text>
  <text x="8.07" y="56.49" style="font-style:normal;font-variant:normal;font-weight:700;font-stretch:normal;font-size:2.8937254px;line-height:1.25;font-family:OpenSymbol;-inkscape-font-specification:'OpenSymbol Bold';letter-spacing:0;word-spacing:0;fill:#000;fill-opacity:1;stroke:none" transform="translate(1.57 .76)">
    <textPath xlink:href="#path424"/>

  </text>
  <text x="-145.69" y="-84.9" style="font-style:normal;font-variant:normal;font-weight:700;font-stretch:normal;font-size:2.8937254px;line-height:1.25;font-family:OpenSymbol;-inkscape-font-specification:'OpenSymbol Bold';letter-spacing:0;word-spacing:0;fill:#000;fill-opacity:1;stroke:none" transform="translate(1.57 .76)">
    <textPath xlink:href="#path1267"/>

  </text>
  <text x="6454.68" y="228.82" font-size="56" font-weight="400" style="font-weight:400;font-size:4.05121565px;line-height:0%;font-family:Arial;-inkscape-font-specification:Arial;text-align:start" transform="rotate(180 1036.8 -494.12)">
    <textPath font-weight="700" startOffset="50%" style="font-weight:700;line-height:100%;-inkscape-font-specification:'Arial Bold';text-align:center;text-anchor:middle" xlink:href="#path5818"/>

  </text>
  <text x="3630.68" y="-7063.62" font-size="56" font-weight="400" style="font-weight:400;font-size:4.05121565px;line-height:0%;font-family:Arial;-inkscape-font-specification:Arial;text-align:start" transform="rotate(180 1036.8 -494.12)">
    <textPath font-weight="700" startOffset="50%" style="font-weight:700;line-height:100%;-inkscape-font-specification:'Arial Bold';text-align:center;text-anchor:middle" xlink:href="#path5818"/>

  </text>
  <g>
    <ellipse cx="302.94" cy="302.86" rx="273.21" ry="273.13" style="fill:none;stroke:#1d3d57;stroke-width:59.45546341;stroke-miterlimit:4;stroke-dasharray:none;stroke-opacity:1"/>
    <path d="M289.23 590.7c-.5-.1-2.7-3.28-7.87-11.36a325.8 325.8 0 0 1-7.46-11.96c-.27-.7-1.07 7.73-1.58 16.4l-.18 3.2 1.95.73c2.42.9 2.65 1.65.45 1.43-.83-.08-3.22-.29-5.3-.45a31.31 31.31 0 0 1-3.93-.45c-.34-.34.3-.77 1.64-1.1.78-.2 1.5-.49 1.6-.64.22-.37 2.1-23.96 1.93-24.25-.08-.12-1-.54-2.06-.92-1.78-.65-2.28-1.07-1.68-1.4.13-.07 2.3.03 4.82.22l4.6.35 6.18 9.88c3.4 5.42 6.39 10.3 6.63 10.82.42.94.43.94.45.16.01-.44.3-4.16.64-8.28.87-10.4 1-9.34-1.27-10.19-2.37-.89-2.58-1.63-.4-1.4.83.07 3.22.28 5.3.44 2.08.17 3.85.37 3.93.45.34.34-.31.79-1.43.98-.66.1-1.4.32-1.63.46-.32.2-.7 3.73-1.5 13.6l-1.08 13.42c-.01.11-1.96.01-2.75-.14zm21.25-.25c-1.12-.26-2.1-.53-2.18-.62-.08-.08-.23-1.66-.32-3.51l-.17-3.37h.78c.67 0 .86.27 1.41 1.99.84 2.63 1.84 3.25 5.21 3.26 1.86 0 2.65-.14 3.51-.65 2.48-1.45 3.29-4.36 1.82-6.54-.74-1.1-2.93-2.37-7.27-4.2-2.52-1.07-4.52-2.7-5.38-4.39-.76-1.47-.85-4.57-.18-6.16 1.22-2.93 4.77-5.17 8.72-5.5 2.03-.17 6.18.3 6.97.8.2.12.46 1.61.58 3.32l.23 3.1h-.8c-.68 0-.87-.24-1.38-1.82-.72-2.2-1.5-2.7-4.6-2.89-3.59-.22-5.49 1.11-5.45 3.82.03 2.35 1.01 3.12 7.76 6.1 4.5 2 6.3 4.27 6.3 7.95 0 4.27-1.94 7.05-6.1 8.73-2.43.99-6.56 1.24-9.46.58zm30.94-2.7a5.88 5.88 0 0 1-1.47-.36 74.32 74.32 0 0 1-1.05-6.55c.03-.02.34-.13.7-.24.57-.17.8.09 1.6 1.8.57 1.22 1.24 2.14 1.73 2.38 1 .5 4.59.48 5.97-.02 3.49-1.27 4.5-5.35 1.9-7.73-1.12-1.03-2.07-1.44-6.72-2.86-5.35-1.64-7.36-3.81-7.36-7.93 0-1.86.14-2.48.87-3.72 1.84-3.13 4.89-4.7 9.68-4.96 1.6-.1 3.41-.07 4.02.04l1.1.2.48 2.95c.5 2.96.41 3.4-.62 3.41-.21 0-.7-.7-1.07-1.58-.88-2.05-1.17-2.26-3.43-2.47-2.6-.23-4 .1-5.28 1.22-1.28 1.12-1.65 2.4-1.14 3.94.55 1.65 1.59 2.28 6.19 3.7 6.8 2.12 9 4.1 9.34 8.38.32 4.04-1.48 7-5.43 8.93a16.42 16.42 0 0 1-10 1.47zm-94.96-2.7c-3.05-.71-5.6-1.47-5.67-1.67-.08-.24.51-.45 1.65-.6.97-.12 1.85-.34 1.94-.5.21-.33-.5-7.04-.77-7.34-.2-.22-9.97-2.56-10.08-2.42-1.56 2.1-3.98 6.14-3.86 6.46.1.24.75.76 1.46 1.17 1.19.68 1.73 1.53.97 1.53-.18 0-1.86-.36-3.74-.8l-4.14-.96c-1.01-.23-.89-1.02.2-1.25.5-.12 1.27-.6 1.7-1.07.44-.47 4.34-5.9 8.67-12.08s8.07-11.23 8.3-11.23c.25 0 1.17.16 2.05.35 1.24.26 1.65.5 1.77 1.03.15.65 3.66 27.22 3.66 27.68 0 .12.45.73 1 1.36.57.65.88 1.26.72 1.4-.15.14-2.78-.33-5.83-1.05zm-3.57-17.78c-.31-2.67-.57-5.57-.58-6.45l-.02-1.6-.8 1.39c-.43.75-2 3.15-3.5 5.3a43.2 43.2 0 0 0-2.7 4.22c0 .25 6.4 1.9 7.66 1.97.44.02.44-.46-.06-4.83zm126.79 15c0-.24.57-.8 1.27-1.23.92-.56 1.28-1 1.28-1.55 0-1.05-5.71-22.71-6.12-23.2-.18-.23-.95-.4-1.7-.4-1.23 0-2.06-.42-1.65-.84.21-.2 10.92-2.99 11.52-2.99.84 0 .55.52-.78 1.4-.99.65-1.27 1.04-1.25 1.71 0 .48 1.34 5.89 2.95 12.02l2.94 11.15 1.82.27c1 .15 1.82.44 1.82.64 0 .29-3.93 1.42-11.54 3.32-.33.08-.56-.04-.56-.3zM159.8 540.9a7.03 7.03 0 0 1-3.2-3.36c-.51-1.57.09-3.33 1.6-4.7 2.13-1.92 4.87-1.87 7.17.16 2.1 1.84 2.05 4.4-.13 6.73-1.07 1.15-1.38 1.3-2.92 1.4a7.34 7.34 0 0 1-2.52-.23zm281.75-.87a6 6 0 0 1-2.14-3.92c0-1.58 1.34-3.56 2.96-4.39 1.35-.69 1.65-.73 2.75-.4 2.3.69 3.94 3.45 3.38 5.67-.73 2.93-4.48 4.57-6.95 3.04zm57.66-33.69c-.12-.12 0-.64.26-1.15.27-.52.44-1.11.39-1.32-.06-.21-3.29-3.44-7.19-7.18-3.9-3.74-7.08-6.88-7.07-7 0-.11.33-.59.72-1.06l.7-.85 9.56 1.08c5.25.6 9.98 1.15 10.5 1.25.8.15.13-.62-4.1-4.68a127.54 127.54 0 0 0-5.53-5.14c-.31-.18-.9-.03-1.73.43-.7.4-1.34.63-1.44.53-.17-.17 3.74-4.7 4.85-5.62.79-.65.95-.08.34 1.2l-.57 1.18 6.32 6.13c3.48 3.36 6.57 6.2 6.88 6.31.3.1 1.12-.12 1.83-.52.7-.4 1.37-.62 1.48-.5.33.32-4.4 5.14-5.15 5.25-.56.08-14.47-1.55-17.26-2.02-.94-.16-.73.11 2.4 3.13a286.8 286.8 0 0 0 4.94 4.69l1.53 1.39 1.4-.77c.77-.42 1.5-.66 1.62-.54.12.12-1.06 1.52-2.62 3.11-1.56 1.6-2.94 2.8-3.06 2.67zm-402.74-9.49c-.84-.86-1.01-1.25-.83-1.84.13-.41 2.22-4.72 4.65-9.58 3.77-7.55 4.42-9.06 4.43-10.35l.02-1.52 3.16 3.32c1.73 1.82 3.08 3.43 2.99 3.58-.1.14-.73-.02-1.4-.37l-1.25-.64-.79 1.36a40.7 40.7 0 0 0-1.33 2.52l-.55 1.18 1.6 1.85c.9 1.02 2.1 2.3 2.68 2.86l1.07 1 2.39-.94a19.6 19.6 0 0 0 2.63-1.2c.14-.13.02-.78-.26-1.44-.27-.66-.42-1.29-.32-1.39.22-.22 2.67 2.11 4.1 3.9l.99 1.24-1.21-.2c-1.04-.17-2.61.35-11.06 3.62l-10.25 3.97c-.22.09-.88-.33-1.46-.93zm12.3-5.95c-.12-.35-4.12-4.49-4.22-4.37-.04.05-1.03 1.9-2.2 4.1l-2.11 4.03 4.31-1.76c2.38-.97 4.28-1.87 4.23-2zm406.6-9.64c-3.53-1.17-6.7-3.81-8.14-6.74a12.17 12.17 0 0 1-.44-8.11c1.17-3.23 4.51-6.56 7.43-7.37 3.22-.9 6.13-.26 9.4 2.08 3.77 2.68 5.78 7.07 5 10.9-.2 1-.68 2.48-1.06 3.28a14.28 14.28 0 0 1-5.45 5.4c-1.86.9-4.95 1.15-6.75.56zm7.58-3.51a6.17 6.17 0 0 0 3.13-3.72c.96-3.2-2.44-7.9-7.68-10.62-2.52-1.3-3.85-1.58-5.45-1.14a5.38 5.38 0 0 0-4.11 5.24c0 1.97.63 3.35 2.42 5.27 3.99 4.25 8.65 6.24 11.7 4.97zm-437.34 3.12c-2.31-.64-4.39-2.02-6.53-4.33-1.78-1.92-4.3-6.03-4.3-7.03 0-.3.8-1.15 1.77-1.89 1.41-1.06 1.83-1.25 2.05-.9.18.3.05.83-.38 1.52-1.05 1.7-.38 4.11 1.86 6.73 3.21 3.76 8.2 3.41 12.9-.89 4.28-3.91 4.64-8.57.92-11.92a5.75 5.75 0 0 0-1.63-1.18c-.6 0-4.8 3.56-4.67 3.94.78 2.08.96 2.77.77 2.96-.12.12-.27.16-.33.08-6.17-7.83-7.09-9.33-4.63-7.58.52.36 1.15.58 1.41.48.26-.1 1.62-1.07 3.02-2.15 3.06-2.38 2.9-2.42 6.8 1.64 3.57 3.7 5.03 6.56 5.03 9.85 0 2.87-1 5.07-3.32 7.36-3.08 3.03-7.18 4.3-10.74 3.3zm449.8-18.21c.82-2.1 1.12-1.8-6.96-7.18-4.13-2.75-7.7-5-7.95-5-.24 0-.8.28-1.24.63-.9.71-1.19.79-1.19.32 0-.5 4.84-7.64 5.17-7.64.16 0 .2.62.07 1.41l-.2 1.41 7.68 5.12 7.7 5.12 1.07-.82c.58-.44 1.14-.69 1.24-.54.24.4-4.65 7.7-5.17 7.72-.28 0-.35-.2-.21-.55zM65.4 456.48c-2.28-3.52-4.18-6.5-4.22-6.61-.05-.11.72-.68 1.7-1.27 2.06-1.23 2.92-1 1.76.46a3.1 3.1 0 0 0-.68 1.36c0 .78 3.3 5.81 3.71 5.65.2-.07 1.62-.94 3.14-1.92 1.74-1.12 2.7-1.94 2.6-2.2a35.2 35.2 0 0 0-1.62-2.7c-1.35-2.12-1.52-2.27-2.33-2.08-1.35.31-1.42.3-1.58-.11-.2-.53 4.7-3.7 5.1-3.3.19.18.04.66-.4 1.29l-.72 1 1.67 2.53c.91 1.4 1.73 2.53 1.82 2.53.09 0 1.65-.95 3.46-2.12 2.1-1.34 3.3-2.32 3.3-2.66 0-.43-2.7-5-3.4-5.73a7 7 0 0 0-1.95-.16c-2.63 0-2.57-.7.15-1.83 1.17-.48 2.15-.84 2.18-.8l7.27 11.3c1.56 2.44 1.54 3.17-.07 1.82-.58-.49-1.14-.72-1.38-.58-.22.13-3.75 2.38-7.84 5.01l-7.43 4.78.2 1.38c.12.75.1 1.37-.04 1.37-.15 0-2.12-2.88-4.4-6.4zm476.66-7.16c-1.81-1.03-2.31-1.6-1.82-2.1.1-.1.82.02 1.6.25.78.24 1.6.36 1.83.27.23-.08.94-1.13 1.58-2.32l1.17-2.16-7.67-4.35c-4.22-2.4-7.9-4.36-8.17-4.36-.28 0-.9.37-1.37.82-.47.46-.94.7-1.03.54-.2-.33 4.27-8.36 4.66-8.36.14 0 .2.66.16 1.47l-.1 1.47 7.78 4.43c6.24 3.55 7.86 4.34 8.17 4.02.21-.23.83-1.26 1.38-2.3l1-1.89-1.27-1.3c-.9-.9-1.2-1.42-1-1.73.22-.36.7-.21 2.46.76a71.7 71.7 0 0 1 2.3 1.3c.16.14-9.25 16.7-9.48 16.68-.1 0-1.09-.52-2.18-1.14zm-486.38-8.75l-1.64-3.31 4.09-8.36c2.25-4.6 4.06-8.36 4.02-8.36-.03 0-2.73 1.39-5.99 3.09l-5.92 3.09.2 1.29.26 1.45c.03.08-.1.2-.27.24-.42.12-3.9-6.48-3.58-6.8.13-.13.68.17 1.21.69l.97.93 1.66-.9c.9-.48 4.98-2.6 9.04-4.7l7.39-3.82.5.95c.26.53.48 1.15.48 1.38 0 .23-1.99 4.6-4.42 9.72l-4.42 9.3 1.32-.75c.72-.41 3.72-2 6.65-3.51 2.93-1.53 5.33-2.87 5.33-3 0-.11-.15-.77-.34-1.44-.7-2.51.24-1.74 2.03 1.66a48 48 0 0 1 1.82 3.66c0 .46-.81.16-1.58-.57l-.81-.78-7.95 4.12a228.97 228.97 0 0 0-8.19 4.37c-.12.13-.09.86.08 1.64.21.91.21 1.5 0 1.71-.2.2-.87-.84-1.94-3zm492.04-18.6c-8.67-.66-9.8-.69-10.62-.26-.5.26-1 .39-1.1.28-.25-.25 3.19-7.67 3.59-7.75.17-.03.32.55.32 1.3v1.34l1.75.2c.96.12 2.26.23 2.9.24l1.13.03 1.51-3.35c.83-1.85 1.46-3.49 1.4-3.64-.2-.55-3.49-3.83-3.84-3.83-.2 0-.76.38-1.25.85s-.98.77-1.08.66c-.28-.28 2.52-6.3 2.88-6.19.17.06.4.58.53 1.16.13.65.86 1.72 1.95 2.84.96.98 4.33 4.55 7.5 7.93l5.77 6.14-.69 1.43c-.81 1.68.67 1.6-12.65.61zm6.04-6.69a50.03 50.03 0 0 0-3.5-3.33c-.23.01-2.64 5.42-2.48 5.58.07.07 2.05.33 4.4.57 2.36.24 4.43.46 4.6.49.17.02-1.19-1.47-3.02-3.3zm-505.97-.86c-4.45-.66-7.86-4.31-9.3-10-.98-3.8-1.35-3.3 4.02-5.43.2-.08.43.14.52.5.12.47-.15.85-1.08 1.5-.68.47-1.33 1.2-1.44 1.62-.53 2.14.97 5.58 3 6.83 1 .63 1.6.75 3.74.73 4.25-.03 7.9-1.9 9.86-5.06.83-1.35.96-1.86.96-3.81 0-2.6-.76-4.5-2.51-6.3-.95-.98-1.02-1.16-.63-1.7.42-.57.55-.5 2.32 1.25 2.99 2.96 4.46 6.74 4.03 10.36-.7 6-7.02 10.46-13.49 9.51zm518.65-11.14l-.1-1.33-8.7-2.88-8.7-2.9-.91 1.12c-.5.61-1 1.01-1.13.9-.3-.31 2.52-8.63 2.98-8.79.25-.08.38.33.38 1.26v1.39l7.38 2.45c4.06 1.35 7.44 2.4 7.5 2.34.06-.06-3.05-2.74-6.92-5.96-6.72-5.58-7.04-5.9-6.86-6.78.1-.51.25-1 .34-1.1.1-.09 4.1-.4 8.92-.69 4.81-.29 8.82-.59 8.9-.67.08-.08-3.1-1.2-7.08-2.47-6.86-2.2-7.25-2.3-7.62-1.73-1.88 2.83-2.07 2.1-.62-2.33.67-2.02 1.33-3.56 1.48-3.4.15.14.31.83.37 1.52l.1 1.26 8.71 2.88 8.72 2.88.86-1.03c1.54-1.84 1.6-1.17.3 2.75l-1.27 3.79-7.23.27c-3.97.15-7.91.27-8.75.27-1.08 0-1.4.1-1.09.32.24.18 3.3 2.73 6.82 5.68l6.39 5.36-1.15 3.48c-.63 1.91-1.32 3.48-1.54 3.48-.23 0-.43-.55-.48-1.34zM32.9 387.34a181.3 181.3 0 0 1-2.2-7.51c-.05-.62 3.68-1.76 4.02-1.24.16.25-.1.7-.7 1.2-.54.46-.97 1.08-.97 1.4 0 .5 1.55 5.93 1.76 6.17.12.13 6.62-1.87 6.9-2.13.3-.26-1.32-5.53-1.79-5.85a2.81 2.81 0 0 0-1.21-.24c-.56 0-.88-.17-.88-.47 0-.3.9-.74 2.64-1.27 1.46-.45 2.75-.8 2.87-.8.54 0 .15.95-.6 1.5l-.83.6.87 2.93c.49 1.6 1.03 2.92 1.2 2.92.73 0 7.53-2.26 7.72-2.57.21-.35-1.36-5.92-1.86-6.59-.17-.22-.84-.48-1.5-.59-2.84-.45-2.56-1.53.49-1.84a13.1 13.1 0 0 1 2.21-.12c.35.44 4.68 15.27 4.51 15.43-.12.12-.62-.26-1.12-.86l-.9-1.08-8.72 2.7c-7.37 2.27-8.74 2.79-8.82 3.33-.22 1.45-.41 2.06-.66 2.06-.14 0-1.23-3.18-2.43-7.08zm523.58-19.6c-.1-.18.06-1.5.36-2.93.47-2.24.67-2.67 1.41-3.05 1.3-.68 11.1-4.91 11.35-4.91.12 0 .17.74.1 1.66-.19 2.77 1.17 4.43 3.99 4.88 1.76.29 3.37-.44 4.02-1.82.5-1.07 1.23-3.77 1-3.77-.05 0-3.87-.79-8.47-1.75-4.6-.96-8.68-1.75-9.08-1.75-.47 0-.88.32-1.21.95-.5.97-1.12 1.28-1.12.57 0-1.21 1.8-8.83 2.07-8.74.18.06.4.66.48 1.34l.16 1.24 2.23.5c8.53 1.93 16.2 3.31 16.32 2.95.21-.64 1.29-1.85 1.47-1.67.3.3-2.25 11.63-2.93 13.1-1.22 2.6-2.38 3.45-4.7 3.45a5.47 5.47 0 0 1-5.34-4.76c-.12-.7-.28-1.29-.36-1.29-.61 0-10.05 4.67-10.71 5.3-.47.45-.93.67-1.04.5zM25 356.17l-.57-3.54 5.8-5.94c3.2-3.26 6.19-6.26 6.64-6.65 1.07-.93 1.08-.94-6.5.34l-6.05 1.01-.28 1.27c-.41 1.9-.52 2.18-.73 1.98a72.97 72.97 0 0 1-1.37-7.79c-.02-.73.47-.4 1.08.72.4.73.83 1.11 1.27 1.1.36 0 4.92-.68 10.12-1.52 9.33-1.5 9.45-1.51 9.63-.87.43 1.61.11 2.04-6.94 9.43-3.92 4.1-7.03 7.5-6.93 7.52.11.04 3.35-.47 7.2-1.11l7.01-1.18.3-1.67c.31-1.76.7-2.15.95-.95.25 1.18 1.14 6.82 1.14 7.2 0 .7-.5.35-1.1-.75-.33-.63-.84-1.12-1.16-1.12-.67 0-16.46 2.5-17.21 2.73-.57.17-.9 1.07-.9 2.45-.01.5-.19.87-.43.87-.28 0-.6-1.12-.98-3.53zm544.46-12.33c-4.75-1.7-7.42-5.42-7.42-10.35 0-4.64 2.24-8.56 5.77-10.08a13.54 13.54 0 0 1 11.96 1.1c3.22 2.13 4.7 5 4.69 9.08-.02 4.67-1.9 8.02-5.46 9.76-2.4 1.18-6.96 1.41-9.54.5zm9.2-4.53a5.58 5.58 0 0 0 4.15-5.4c0-2.75-1.53-4.5-5.04-5.78-1.52-.56-2.63-.7-5.86-.72-3.79-.03-4.05.01-5.46.84a5.55 5.55 0 0 0 .39 9.8c.69.36 2 .85 2.92 1.1 1.98.53 7.23.62 8.9.16zM41.6 329.64c-.44-.6-2.67-1.47-10.83-4.18a490.13 490.13 0 0 1-10.4-3.52c-.07-.06-.2-.8-.27-1.64l-.15-1.53 9.96-4.44c8.17-3.65 10.06-4.61 10.47-5.33.9-1.57 1.19-1.05 1.4 2.52.28 4.54.27 5.52-.09 5.52-.16 0-.48-.5-.7-1.12-.5-1.37-.84-1.38-3.73-.1l-2.27 1 .18 3.21c.26 4.83.07 4.5 3.06 5.41 1.43.44 2.72.73 2.85.65.14-.09.34-.65.46-1.26.33-1.8 1.09-1.4 1.1.57 0 .92.08 2.42.2 3.34.22 1.9-.26 2.24-1.24.9zm-8.01-6.1c-.11-.28-.2-1.53-.2-2.79 0-1.25-.12-2.46-.26-2.68-.2-.3-1.26.02-4.38 1.35-2.95 1.26-3.93 1.8-3.48 1.93.35.1 2.29.74 4.3 1.41 4.3 1.44 4.27 1.43 4.02.78zm547.24-6.77c0-.44.35-.67 1.35-.88l1.36-.29.21-3.49c.12-1.92.15-3.6.06-3.74-.08-.14-1.94-.25-4.11-.25h-3.97v6.4l.96.34c.64.22.95.54.95.98 0 .6-.13.63-1.67.45-.92-.11-2.35-.2-3.18-.2-1.95 0-2.09-.78-.24-1.28l1.27-.34v-6.26l-1.95-.2a48.2 48.2 0 0 0-4.14-.2h-2.17l-.43 1.49c-.24.82-.63 1.56-.86 1.63-.34.12-.38-.52-.21-3.3.11-1.88.2-4.2.2-5.13 0-2 .47-2.22.99-.48l.37 1.23 3.54.2c1.95.12 6.17.21 9.38.21h5.82l.47-1.11c.85-2.03 1.2-1.38.98 1.8-.11 1.6-.2 5.18-.2 7.96v5.05h-2.4c-2.1 0-2.38-.07-2.38-.6zM22.48 306.29l-2.47-.1v-2.33c0-1.28.1-5.57.2-9.54l.22-7.22h2.68c2.38 0 2.66.07 2.57.56-.07.37-.63.69-1.65.94-.85.21-1.6.43-1.66.5-.06.05-.2 1.26-.32 2.68l-.22 2.58 6.18.21c3.4.13 7.59.18 9.33.12l3.15-.1.37-1.1c.2-.6.56-1.16.8-1.24.34-.11.38.38.21 2.53-.11 1.47-.2 3.71-.2 4.98 0 2.56-.43 3-.97 1.02-.19-.7-.52-1.34-.73-1.4-.2-.07-4.36-.22-9.23-.33l-8.85-.2.1 2.79.09 2.8 1.43.34c1.1.26 1.46.5 1.54 1.05.05.38.05.67 0 .64-.06-.04-1.22-.12-2.57-.18zm562.29-12.48c-.31-.78-.72-1.3-1.04-1.29a747 747 0 0 0-9.28.63c-11.82.85-10.83.9-10.83-.6 0-1.2.14-1.35 7.22-7.56a266.7 266.7 0 0 1 8.04-6.88c1.03-.7 1.4-.69-6.82-.08-3.5.26-6.62.47-6.92.47-.33 0-.62.32-.72.8l-.33 1.6c-.3 1.41-.73.84-.9-1.2-.52-5.92-.52-5.97-.1-5.97.22 0 .59.5.8 1.11.3.82.6 1.11 1.1 1.1 2.5-.03 17.5-1.23 17.68-1.4.12-.12.37-.8.55-1.53.53-2.12.99-1.78 1.21.91.44 5.13 1 4.17-5.92 10.06l-7.22 6.1-1.08.89 1.88-.18c1.04-.1 4.1-.34 6.82-.53 2.71-.2 5.03-.5 5.14-.68.11-.19.3-.89.4-1.57.3-1.89.76-1.46.97.92l.35 3.96c.2 2.23-.3 2.69-1 .92zM41.53 281.87c-.12-.61-.34-1.2-.49-1.29-.27-.16-16.32-1.75-17.77-1.76-.52 0-.88.33-1.26 1.12-.81 1.7-1.17 1.37-.93-.88.11-1.1.3-3.17.41-4.62.22-2.82.82-3.56 1.2-1.5.12.63.39 1.2.6 1.28.37.13 16.87 1.74 17.87 1.74.27 0 .7-.5.96-1.12.26-.61.62-1.11.8-1.11.4 0 .4.34-.09 5.23-.38 3.85-.9 5.03-1.3 2.91zm519.75-17.62a83.84 83.84 0 0 0-.73-4.61c-.28-.98.74-.62 1.16.4.22.53.51 1.03.64 1.11.22.14 16.02-2.13 17.75-2.55.54-.13.76-.47.92-1.45.11-.72.36-1.23.55-1.16.5.16 1.8 9.14 1.33 9.14-.2 0-.62-.51-.91-1.14-.48-.99-.66-1.11-1.42-.96-.47.1-4.3.69-8.5 1.3-9.92 1.46-9.04 1.2-9.28 2.72-.39 2.4-.92 1.4-1.5-2.8zM31.11 267.4c-3.08-.99-5.03-2.67-6.68-5.77-.66-1.23-.76-1.87-.76-4.61 0-2.77.1-3.42.83-4.95 1.14-2.44 2.56-3.94 4.68-5 1.63-.79 2.13-.88 5-.86 2.5.02 3.57.17 5 .73a11.7 11.7 0 0 1 5.89 5.62c.77 1.65.89 2.29.87 4.62-.05 4.78-1.99 8.16-5.7 9.91-1.66.8-2.29.91-4.63.9a16.37 16.37 0 0 1-4.5-.6zm8.64-4.2c2.88-.66 4.46-2.65 4.46-5.61 0-3.6-3.38-6-9.5-6.75-5.41-.66-8.93 1.05-9.46 4.58-.5 3.32 1.32 5.66 5.45 7 3.25 1.06 6.6 1.35 9.05.78zm536.01-13.37c-1.03-.42-3.16-2.14-3.56-2.88-.5-.93.44-1.11 1.57-.3 2.07 1.46 4.68.97 5.48-1.04.22-.56.45-1.07.51-1.15.26-.32 2.65 2.4 2.65 3.01 0 .8-1.07 1.88-2.33 2.36a7.69 7.69 0 0 1-4.32 0zM47.61 243.9c-.12-.12-.22-.76-.22-1.43 0-.68-.07-1.23-.15-1.23-.09 0-4.06-1.07-8.83-2.38a428.34 428.34 0 0 0-8.86-2.4c-.1 0-.51.58-.9 1.28-.7 1.24-1.32 1.66-1.32.9 0-.2.38-1.77.84-3.48l.84-3.12 3.22-1.24 8.55-3.28a57.96 57.96 0 0 0 5.34-2.2c0-.09-2.82-.93-6.26-1.88l-6.26-1.73-.5.68-1.04 1.4c-.94 1.31-.9.45.15-3.36 1.05-3.82 1.57-4.6 1.75-2.6.06.65.32 1.24.64 1.4.3.16 4.62 1.4 9.61 2.75 5 1.36 9.18 2.57 9.3 2.68.14.11.1.7-.07 1.33l-.3 1.12-9.33 3.7a819.79 819.79 0 0 1-9.79 3.84c-.43.13-.43.17 0 .33 1.01.38 13.4 3.72 13.77 3.71.22 0 .73-.57 1.13-1.27.73-1.28 1.52-1.74 1.22-.71l-1 3.74c-.86 3.23-1.14 3.85-1.53 3.45zm514.55-3.09c-2.9-.94-5.48-3.4-6.9-6.57-.85-1.88-3.82-12.45-3.57-12.7.11-.1.58.27 1.05.84.47.57 1.14 1.03 1.49 1.02.35 0 4.36-1.06 8.91-2.33l8.28-2.32.1-1.33c.2-2.7.88-1.43 2.63 4.96 1.54 5.58 1.73 6.63 1.73 9.31 0 2.5-.13 3.26-.7 4.33-.9 1.69-2.64 3.2-4.86 4.22-2.12.97-6.09 1.25-8.16.57zm5.97-4.96c5.09-1.91 6.58-4.93 5.08-10.31a16.98 16.98 0 0 0-.74-2.3c-.18-.19-16.56 4.33-16.95 4.67-.83.74 1.48 6.2 3.11 7.36 2.36 1.68 5.98 1.9 9.5.58zm-513.5-16.48a6.3 6.3 0 0 1-.34-1.1c-.14-.56-2.86-3.33-8.09-8.23-4.33-4.06-7.92-7.57-7.98-7.8-.05-.23.12-.94.38-1.57l.48-1.14h10.88c9.65 0 10.97-.06 11.79-.54.5-.3 1-.46 1.1-.36.1.1-.51 1.99-1.35 4.2-1.59 4.2-2.45 5.21-2.26 2.67l.1-1.36h-5.96l-1.3 3.43L50.8 211l.93.98a25.8 25.8 0 0 0 2.17 1.97l1.23.98.91-1.01c1.6-1.8 1.65-1.19.18 2.6-1.1 2.87-1.33 3.28-1.57 2.85zm-4.15-12.73c.59-1.51 1.03-2.79.98-2.83-.05-.05-2.12-.13-4.61-.2-3.46-.08-4.44-.02-4.14.27 2.1 2.03 6.45 5.77 6.57 5.65.08-.08.62-1.38 1.2-2.89zM547.86 204c-3.23-.78-5.56-3.51-6.7-7.87-.71-2.78-.71-2.78 1.76-3.89 1.23-.54 2.38-1 2.55-1 .73 0 .23 1.14-.96 2.15-.9.77-1.27 1.34-1.27 1.94 0 1.58.68 3.3 1.74 4.46.89.96 1.28 1.15 2.36 1.15 2.6 0 3.79-1.83 3.84-5.94.06-5.67 1.9-8.21 5.91-8.21 2.04 0 3.32.63 4.86 2.37 1.27 1.44 2.3 3.86 2.75 6.49.19 1.04.16 1.07-1.9 2-2.85 1.3-3.63.78-1.57-1.03 1.32-1.16 1.47-2.5.5-4.62-1.03-2.29-2.93-3-4.58-1.7-1.03.81-1.49 2.39-1.49 5.15 0 3.07-.54 5.22-1.63 6.45a6.67 6.67 0 0 1-6.17 2.1zm-483.4-10.6l.19-1.36-8.15-4.06c-4.49-2.23-8.36-4.06-8.6-4.06-.25 0-.73.38-1.06.84-.34.46-.78.79-.98.72-.42-.14 3.7-8.88 4.18-8.88.18 0 .22.64.1 1.59l-.22 1.59 8.01 3.99c6 2.99 8.11 3.9 8.42 3.65.56-.47 2.7-5.01 2.7-5.74 0-.31-.33-.98-.72-1.48-1.57-1.94-1.55-1.9-1.08-2.29.34-.28.9 0 2.55 1.24l2.11 1.6-3.5 7c-1.93 3.85-3.64 7-3.81 7-.19 0-.24-.56-.13-1.35zm469.38-12.66c-2.05-3.88-3.64-7.13-3.54-7.23.1-.1.67.18 1.26.63l1.08.83 8.08-4.27 8.1-4.26-.08-1.45c-.05-.8.05-1.45.2-1.45.17 0 1.47 2.26 2.91 5.02 1.44 2.75 3.1 5.89 3.7 6.96l1.07 1.94-1.92 1.02c-1.65.88-1.94.95-2.1.5-.12-.3.07-.8.47-1.23.37-.4.68-.98.68-1.3 0-.62-2.77-5.9-3.1-5.9-.15 0-6.09 3.1-6.38 3.34-.05.03.57 1.3 1.38 2.82l1.46 2.75 1.25-.2c1.02-.16 1.25-.1 1.25.32 0 .32-.95 1-2.59 1.81-2.83 1.43-3.74 1.35-2.4-.2l.78-.92-1.39-2.76-1.39-2.77-3.59 1.86c-1.98 1.03-3.64 2.1-3.7 2.38-.12.61 2.35 5.56 3.07 6.14.28.21 1.2.4 2.06.4 1.27 0 1.53.09 1.45.52-.1.51-1.36 1.09-3.35 1.52l-.99.22zm-459.9-5.86l.18-1.4-7.76-4.65c-4.27-2.56-7.95-4.65-8.17-4.65-.22 0-.73.3-1.12.67-1.87 1.76-1.1-.11 2.6-6.32 4.5-7.54 3.84-7.02 6.62-5.27.96.6 1.14.86.86 1.2-.26.3-.63.35-1.32.15-1.54-.44-1.42-.56-4.4 4.52l-.69 1.16 3.18 1.92c2.31 1.4 3.26 1.82 3.47 1.55.16-.21.9-1.43 1.64-2.72l1.35-2.33-.7-.75c-.44-.47-.63-.96-.5-1.29.17-.46.28-.47.9-.07l2.55 1.55c2.23 1.31 2.41 1.99.5 1.83-1.29-.1-1.35-.06-2.25 1.49-.52.88-1.21 2.05-1.55 2.6l-.62 1.01 3.53 2.12c1.94 1.17 3.72 2.06 3.95 1.97.24-.1 1.17-1.47 2.08-3.06l1.66-2.9-.8-1.44c-.72-1.28-.84-2.4-.25-2.36.11.01.97.7 1.92 1.55l1.7 1.54-4.1 6.88c-2.25 3.78-4.22 6.88-4.38 6.89-.15 0-.2-.62-.09-1.39zm451.5-9.17c-2.45-3.61-2.95-4.73-1.69-3.83 1.75 1.26 1.5 1.35 8.22-3.12 3.48-2.32 6.46-4.33 6.6-4.47.16-.13-.99.03-2.54.37l-9.2 2c-6.35 1.4-6.36 1.4-6.92.76-.3-.35-.55-.83-.55-1.06 0-.42 8.74-13.34 9.99-14.77.87-.99.8-.95-6.45 3.89-6.11 4.07-6.16 4.11-6 5.11.1.55.27 1.26.4 1.57.14.36.06.55-.22.54-.54 0-4.5-5.95-4.24-6.37.1-.17.66.06 1.26.5l1.07.83 7.66-5.12c4.22-2.82 7.67-5.23 7.67-5.36 0-.13-.14-.73-.31-1.34-.18-.6-.2-1.21-.06-1.36.33-.32 4.61 6.05 4.4 6.56-.07.2-2.3 3.37-4.93 7.05a206.6 206.6 0 0 0-4.73 6.73c.03.03 3.64-.71 8.02-1.65 4.38-.94 8.2-1.72 8.48-1.72.55-.01 4.65 5.91 4.32 6.24-.1.1-.63-.13-1.17-.51-.54-.39-1.18-.63-1.43-.54-.72.28-14.74 9.7-14.96 10.06-.12.19-.07.84.1 1.45s.2 1.18.07 1.26c-.13.08-1.41-1.58-2.85-3.7zM91.76 147.58c.1-.42.27-1.07.4-1.45.18-.6-.72-1.42-6.98-6.44-3.95-3.17-7.3-5.76-7.43-5.76-.14 0-.6.29-1.05.63-.9.7-1.27.8-1.27.29 0-.54 7.13-9.25 9.08-11.1 2.25-2.13 4.2-3 6.72-3 4.94-.01 10 4.82 10.53 10.07.2 2-.53 5.2-1.63 7.08-.92 1.57-7.75 10.15-8.21 10.32-.2.07-.27-.18-.16-.64zm4.92-7.87c1.78-2.18 2.52-4.64 2.01-6.66-.53-2.1-1.06-3-2.89-4.78-3.06-3-6.61-4.18-9.38-3.12-1.3.5-4.45 3.46-5.26 4.96-.2.38 1.27 1.71 6.61 5.98 3.78 3.02 7.03 5.44 7.22 5.38.19-.06.95-.86 1.69-1.76zm407.42-3.42c-2.84-3.43-5.08-6.33-4.98-6.43.1-.1.74.12 1.4.5l1.22.68 6.98-5.77c7.42-6.13 7.35-6.04 6.65-8.19-.16-.51-.12-.72.12-.64.2.07 2.58 2.82 5.3 6.11l4.96 5.98-1.01.87c-1.87 1.58-2.21 1.76-2.6 1.37-.27-.26-.22-.6.18-1.28.3-.5.55-1.1.55-1.3 0-.21-.94-1.51-2.1-2.9l-2.1-2.5-2.75 2.26a35.8 35.8 0 0 0-2.85 2.48c-.05.12.8 1.25 1.87 2.53 1.3 1.54 2.1 2.25 2.42 2.13 2.74-1.05 2.64-.12-.25 2.21-1.55 1.25-2.36 1.72-2.59 1.5-.22-.23-.16-.56.2-1.07.27-.4.5-.92.5-1.16 0-.38-3.45-4.84-3.74-4.84-.34 0-6.45 5.24-6.45 5.54 0 .19 1.02 1.54 2.25 2.99 2.23 2.61 2.26 2.63 3.43 2.4 1.84-.35 2.42-.3 2.52.21.08.4-1.96 1.74-3.74 2.48-.12.05-2.54-2.72-5.39-6.16zm-395.55-8.88c0-.09.24-.66.54-1.29l.54-1.13-3-3.04c-1.66-1.67-4.69-4.61-6.73-6.53l-3.71-3.49-1.14.55c-.63.3-1.24.44-1.36.32-.12-.12 1.84-2.33 4.36-4.91 2.51-2.59 4.96-5.11 5.43-5.62l.87-.92 1.62 1.4c1.36 1.17 1.54 1.46 1.18 1.82-.36.36-.59.35-1.43-.09-1.28-.66-1.63-.47-4.09 2.3l-1.95 2.2 2.6 2.6 2.62 2.6 2.2-2.22 2.21-2.22-.54-1.14c-.49-1.02-.49-1.15-.03-1.32.67-.26 4.72 3.7 4.26 4.17-.21.21-.66.19-1.35-.07-1.01-.38-1.05-.36-3.21 1.8l-2.19 2.19 2.93 2.83c1.61 1.55 3.1 2.87 3.32 2.92.2.05 1.43-1 2.71-2.32 2.27-2.34 2.33-2.44 2.1-3.6-.64-3.3-.15-3.59 1.71-1l1.27 1.79-5.58 5.78c-4.89 5.07-6.16 6.23-6.16 5.64zm380.95-7.27c-3.53-3.55-4.07-4.48-1.96-3.4l1.3.66 4.03-3.82a332.1 332.1 0 0 0 6.57-6.37l2.53-2.56-1.42-1.58c-1.59-1.78-2.6-2.24-3.6-1.63l-1.22.76c-.4.25-.66.23-.95-.06-.31-.31-.03-.76 1.43-2.22l1.82-1.82 6.69 6.68c3.67 3.68 6.68 6.85 6.68 7.06 0 .2-.82 1.1-1.83 1.98-2.12 1.87-2.91 1.74-1.75-.28.4-.68.72-1.5.72-1.82 0-.33-.77-1.35-1.72-2.28l-1.71-1.7-6.49 6.37c-7.14 7.02-6.6 6.17-5.53 8.75.47 1.14-.41.47-3.59-2.72zm33.25 1.8c-.33-2.46-.24-7.38.15-7.62.33-.2 1.23.66 2.4 2.32.46.65.42.92-.52 3.74-.57 1.73-1.18 3.03-1.42 3.03s-.49-.59-.6-1.47zm-46.22-14.54c-2.54-1.04-5.19-3.36-6.3-5.53-.49-.93-.47-.97 1-2.74.81-.98 1.65-1.8 1.86-1.81.73-.04.74.59.03 2.04l-.71 1.47.76 1.44c1.9 3.57 6.06 4.23 7.5 1.2.64-1.34.49-2.18-1.05-5.85-1.53-3.64-1.6-6.02-.26-7.79 1.79-2.34 5.03-3 7.93-1.62 1.65.78 4.06 3.01 4.9 4.51l.68 1.24-1.56 1.73c-1.2 1.34-1.65 1.65-1.94 1.36-.3-.3-.26-.64.16-1.5.74-1.57.68-2.1-.44-3.64-.96-1.33-2.52-2.25-3.81-2.25-.95 0-2.54 1.68-2.54 2.69 0 .46.65 2.46 1.44 4.46 1.62 4.1 1.75 5.45.71 7.5a6.03 6.03 0 0 1-5.42 3.4 9 9 0 0 1-2.94-.3zm-343.87-3.3c-.12-.1.08-.6.42-1.08.35-.49.63-1.03.63-1.2 0-.63-11.2-14.23-11.79-14.33-.33-.06-.9.06-1.29.27-.38.2-.8.24-.96.09-.28-.28 6.72-6.15 7.33-6.15.5 0 .42.25-.5 1.45-.76 1-.79 1.15-.36 1.8 1.45 2.2 10.59 13.16 11.04 13.24.3.05 1.59-.74 2.87-1.75l2.33-1.84-.23-1.6c-.36-2.58-.34-2.84.16-2.94.56-.1 3.07 4.32 2.65 4.68a633.56 633.56 0 0 1-11.97 9.57c-.07 0-.22-.1-.33-.2zm325.64-11.16c-1.96-1.5-3.5-2.84-3.41-2.98.09-.15.73-.07 1.43.18l1.27.45 2.2-2.94 2.19-2.93.73-6.47c.57-5.02.65-6.67.38-7.4-.2-.51-.26-1-.14-1.07.34-.21 7.36 5.02 7.37 5.5 0 .28-.2.36-.55.22-.31-.12-.94-.3-1.4-.39-.98-.2-.9-.44-1.73 5.2-.29 1.97-.48 3.71-.41 3.89.11.33 7.62-3.03 8.3-3.72.29-.28.2-.6-.32-1.32-.67-.9-.9-1.6-.54-1.6.33 0 5.57 3.94 5.57 4.2 0 .14-.46.25-1.02.25-.58 0-3.48 1.1-6.79 2.57l-5.77 2.57-2.13 2.84c-1.17 1.56-2.12 3.02-2.12 3.24a3 3 0 0 0 .63 1.2c.34.44.63.9.63 1.04.02.61-1.06-.01-4.37-2.53zm-309.77-1.93c.55-1.3.37-2.65-1.7-12.6l-2.18-10.46 1.31-.9 1.3-.9 8.85 6.34c7.39 5.29 9.03 6.34 9.94 6.34.6 0 1.1.14 1.1.32 0 .41-7.27 5.25-7.52 5-.11-.1.1-.61.48-1.13a3.5 3.5 0 0 0 .66-1.37c-.01-.35-3.31-3.05-4.16-3.4-.13-.05-1.67.86-3.41 2.02l-3.17 2.1.55 2.55c.66 3.08.88 3.35 2.27 2.86 2.06-.72 1.53.21-1.14 1.98-2.85 1.9-3.58 2.19-3.18 1.25zm6.19-14.14c0-.11-1.65-1.44-3.68-2.95-2.1-1.56-3.6-2.5-3.5-2.18.09.3.53 2.2.98 4.22.45 2.02.88 3.85.95 4.07.1.27.99-.15 2.7-1.27 1.4-.93 2.55-1.77 2.55-1.89zm286.1 4.53c-2.32-1.1-5.39-3.88-5.1-4.62.48-1.26 2.5-4.03 2.85-3.91.4.14.42.62.05 2.55-.3 1.58.21 2.53 2.04 3.74 1.93 1.28 3.8 1.3 5.11.07a4.2 4.2 0 0 0 1.13-1.85c.2-1 .22-.97-3-6.99-1.14-2.16-1.33-2.75-1.2-3.9.48-4.19 5.13-6.4 9.31-4.42a14.3 14.3 0 0 1 4.64 3.5l.63.8-1.17 1.85a71.59 71.59 0 0 1-1.27 1.98c-.06.07-.32-.05-.58-.27-.34-.29-.39-.59-.16-1.18.58-1.53.35-2.5-.87-3.72-2.03-2.03-4.51-2.2-5.7-.38-.8 1.23-.41 2.69 1.57 5.84 2.1 3.33 2.69 5.27 2.14 7.1-.46 1.55-2.36 3.73-3.76 4.31-1.78.75-4.46.55-6.67-.5zM180.03 68.65c-.98-1.95-1.05-2.25-.6-2.5.4-.22.78 0 1.63.94 1.3 1.44 2.57 1.6 4.72.63 2.38-1.09 3.45-3.16 2.58-5-.86-1.79-1.75-2.14-5.74-2.27-4.83-.16-5.46-.29-6.76-1.43-2.76-2.42-2.67-6.33.22-9.07a13.6 13.6 0 0 1 6.2-2.9l1.36-.14.99 1.96c1.4 2.77.83 3.49-1.12 1.42-.99-1.05-1.19-1.13-2.28-.93-3.03.54-4.78 2.19-4.41 4.14.35 1.89 1.54 2.4 5.61 2.4 4.2 0 6.25.55 7.56 2.05a6.48 6.48 0 0 1 1.59 5.13c-.26 3.1-2.87 5.82-6.87 7.13-3.21 1.06-3.4 1-4.68-1.56zm234-1.91a14.55 14.55 0 0 1-5.55-3.08l-1.03-1.07.94-2.15c1.24-2.8 1.88-2.87 1.88-.2 0 2.22.46 2.95 2.46 3.97 2.95 1.51 5.98.1 5.98-2.8 0-1.04-.7-2.27-2.7-4.72-2.95-3.63-3.43-5.9-1.8-8.47 1.22-1.92 2.77-2.67 5.46-2.66a11 11 0 0 1 6.9 2.84l1.13.98-.97 2.15c-.76 1.66-1.09 2.1-1.5 1.94-.42-.17-.48-.48-.31-1.68.25-1.83-.41-2.82-2.56-3.86-2.29-1.1-4.24-.44-4.76 1.61-.29 1.17.18 2.13 2.36 4.84 2.14 2.67 3.2 4.68 3.2 6.14 0 .52-.34 1.69-.75 2.58-1.47 3.14-4.65 4.52-8.39 3.64zM197.7 63.22c0-.18.42-.71.94-1.2l.94-.87-3.46-8.6-3.45-8.6h-1.3c-.71 0-1.34-.11-1.39-.26-.07-.24 12.24-5.37 13.96-5.81.56-.15.76.1 1.36 1.65.86 2.25.5 2.92-.85 1.62-.5-.47-1.13-.85-1.43-.85-.62 0-5.35 1.83-5.76 2.23-.16.16.29 1.7 1.06 3.62l1.35 3.35 1.48-.59c4.41-1.75 4.15-1.57 4.25-2.83.16-1.82.9-1.44 1.88.97 1.26 3.06 1.35 3.44.89 3.44-.22 0-.77-.35-1.22-.78l-.81-.77-2.91 1.12-2.91 1.12 1.6 3.95c.87 2.18 1.74 3.95 1.94 3.95.2 0 1.7-.53 3.34-1.18 3.2-1.26 3.56-1.64 3.56-3.77 0-.87.12-1.1.61-1.1.5 0 .69.36.98 1.83.2 1.01.39 2.03.42 2.26.04.27-2.6 1.49-7.42 3.42-4.11 1.65-7.52 3-7.56 3-.05 0-.1-.14-.1-.32zm195.77-5.35c-3.98-1.5-7.13-2.84-7-2.97.13-.13.8-.28 1.48-.33l1.25-.1 3.12-8.28c1.71-4.56 3.12-8.5 3.13-8.76.01-.26-.43-.85-.99-1.3-.55-.46-.87-.91-.72-1 .37-.22 14.78 5.15 14.78 5.5 0 .8-1.38 3.82-1.7 3.72-.2-.07-.44-.75-.53-1.52l-.16-1.4-3.02-1.19a57.48 57.48 0 0 0-3.23-1.2c-.18-.02-2.3 5.46-2.57 6.62-.06.27.77.75 2.3 1.33 2.89 1.1 3.6 1.15 4.18.27.25-.37.68-.62.97-.55.45.1.38.47-.5 2.82-1.13 3.02-1.84 3.52-2.1 1.48-.17-1.22-.19-1.24-2.93-2.26l-2.76-1.04-1.46 3.87a64.93 64.93 0 0 0-1.46 4.1c0 .25.29.37 4.21 1.83l2.46.91 1.48-1.12c2.04-1.56 2.4-1.06 1.04 1.43-.6 1.1-1.27 1.93-1.54 1.9-.27-.01-3.74-1.26-7.73-2.76zm-172.52-5.05c-2.13-.78-5.12-3.9-6.04-6.31-1.08-2.8-1.22-6.2-.35-8.5 1.63-4.3 6.52-7.37 12.25-7.65l1.87-.1.75 2.4c.9 2.88.9 2.86.18 2.86-.32 0-1.02-.62-1.56-1.39-1.11-1.58-2.1-1.92-4.21-1.45-3.59.8-5.45 3.1-5.44 6.73.01 4.61 2.45 9 5.8 10.44 2.85 1.22 6.8.45 9.2-1.8.7-.65.88-.7 1.2-.32.2.24.28.67.18.95-.29.74-3.28 2.95-5.1 3.77-2.09.94-6.64 1.13-8.73.37zm151.1-1.92c-2.55-.6-10.33-2.73-10.98-3.01-.76-.33-.77-.36-.16-.6a5.16 5.16 0 0 1 1.49-.28c.67-.02.92-.24 1.18-1.06.62-1.98 4.5-16.4 4.5-16.74 0-.19-.43-.6-.96-.9-1.09-.65-1.33-1.55-.32-1.23l6.37 1.77c6.3 1.72 8.45 2.64 10.3 4.4 2.05 1.94 2.6 3.3 2.58 6.4-.02 5.53-2.85 9.5-7.8 10.97-1.58.47-4.75.62-6.2.28zm4.52-2.67c2.53-1.23 4.47-4.91 4.8-9.11.15-2.05.08-2.49-.7-4.06-1.02-2.1-2.35-3-5.84-3.96-1.73-.48-2.36-.55-2.47-.26-.08.2-1.14 4.03-2.36 8.5-1.73 6.32-2.13 8.2-1.83 8.49.67.63 4.13 1.38 5.62 1.21.78-.08 2.03-.45 2.78-.8zm-130.3-.44c-.18-.06-.72-.2-1.2-.3-1.16-.26-3-1.92-3.75-3.4-.34-.65-1.19-4.03-1.9-7.5a96.23 96.23 0 0 0-1.59-7.04c-.24-.55-.57-.72-1.43-.72-.71 0-1.12-.15-1.12-.41 0-.28 1.4-.7 4.22-1.28 2.32-.47 4.4-.86 4.61-.86.73 0 .42.49-.71 1.1-.61.33-1.11.75-1.11.94 0 .2.63 3.4 1.4 7.12.92 4.42 1.65 7.15 2.1 7.89 1.27 2.06 3.44 2.58 5.95 1.44 1.65-.75 2.33-1.98 2.33-4.22 0-2.16-2.45-14-2.96-14.33a2.95 2.95 0 0 0-1.24-.25c-1.02 0-1.46-.52-.66-.77.71-.23 6.75-1.46 7.12-1.46.64 0 .22.57-.83 1.13-.61.33-1.11.75-1.11.93 0 .18.57 3.09 1.27 6.46 1.52 7.35 1.58 8.88.44 11.18-.89 1.78-2.21 2.87-4.43 3.65-1.3.46-4.83.92-5.4.7zm89.16-4.03c-3.85-.51-7.2-1-7.42-1.08-.63-.22-.13-.8.7-.8 1.58 0 1.7-.36 2.73-8.6.53-4.28 1.06-8.33 1.16-8.98.17-1.12.11-1.22-.96-1.73-2.54-1.21-1.27-1.27 6.58-.31 4.25.52 7.77.98 7.83 1.02.06.05 0 1.04-.12 2.2-.18 1.69-.33 2.09-.73 2.01-.28-.05-.65-.6-.82-1.2-.17-.62-.44-1.21-.6-1.32-.17-.12-1.66-.39-3.32-.6-2.24-.3-3.08-.31-3.24-.05-.25.4-1.1 6.74-.92 6.91.18.19 4.17.78 5.23.78.8 0 1.07-.18 1.39-.95.22-.53.6-.96.87-.96.4 0 .44.39.25 2.4a28.96 28.96 0 0 1-.45 3.22c-.2.8-.25.81-.77.3-.3-.3-.54-.82-.54-1.14 0-.33-.11-.67-.25-.76-.39-.23-5.82-.92-5.98-.75-.33.32-1.14 7.96-.88 8.22.33.33 4.18.92 6 .92 1.12 0 1.38-.15 2.17-1.27 1.57-2.21 2.15-1.5 1.17 1.45-.57 1.72-.8 2.06-1.38 2.03-.38-.02-3.84-.45-7.7-.96zm-70.54.07c0-.15.59-.52 1.3-.8 1.26-.5 1.3-.56 1.12-1.7-.1-.66-.55-4.7-1-9-.44-4.29-.85-7.96-.92-8.16-.07-.2-.64-.45-1.27-.57-.62-.12-1.14-.33-1.14-.48 0-.4.89-.55 6.93-1.16 6.37-.64 8.45-.4 9.98 1.12a5.67 5.67 0 0 1 1.43 4.62c-.26 1.37-2 3.43-3.38 4-.53.22-.93.52-.88.66.26.75 7.52 8.29 8.28 8.6.88.36 1.12.75.65 1.03-.13.08-1.45.24-2.94.35l-2.71.22-4.43-5.02-4.42-5.02 1.4-.36c3.08-.78 3.94-1.95 3.72-5.02-.12-1.66-.27-2.03-1.16-2.82-.9-.81-1.24-.9-3.24-.9-2.14 0-2.22.02-2.22.77 0 .91 1.51 15.5 1.76 16.94.14.88.32 1.02 1.43 1.2 1.39.22 1.68.74.55.96-.98.2-7.09.83-8.05.83-.43 0-.79-.13-.79-.29zm48.01-1.86c-2.9-.08-3.74-.2-3.74-.54 0-.24.53-.56 1.2-.72 1.15-.27 1.2-.33 1.4-1.97.11-.93.3-5.04.44-9.13l.23-7.43-.77-.2a12.7 12.7 0 0 0-2.67-.1l-1.9.1-.5 1.6c-.3.96-.72 1.63-1.04 1.7-.46.08-.53-.25-.53-2.49 0-1.77.12-2.62.4-2.72.22-.08 4.55.03 9.63.25l9.24.39.1.95c.06.52.02 1.7-.1 2.64-.28 2.26-1.1 2.21-1.58-.09l-.34-1.59-1.75-.2c-.96-.12-2.2-.23-2.73-.25l-1-.03-.2 6.3c-.12 3.45-.3 7.6-.41 9.2l-.2 2.92 1.32.4c1.6.48 1.79 1.28.28 1.18-.57-.04-2.72-.12-4.78-.17zm-22.53-.35c0-.15.58-.5 1.28-.77l1.27-.5-.2-7.6c-.1-4.17-.28-8.36-.4-9.3-.18-1.6-.28-1.76-1.23-2.08-2.11-.7-1.23-.98 3.5-1.07 2.8-.05 4.7.04 4.7.22 0 .16-.42.4-.94.5-.5.12-1.07.38-1.25.6-.2.25-.22 3.28-.03 8.97l.3 9.14c0 .35.45.67 1.28.92 1.6.48 1.62.78.08 1.03-1.79.3-8.36.25-8.36-.06zM195.9 39.4c-.27-.17-.3-.6-.11-1.5l.65-3.13c.37-1.84.39-1.87 2.1-2.63 2.02-.89 2.35-.93 2.35-.3 0 .45-3.56 6.63-4.26 7.4-.2.22-.53.29-.73.16zm142-18.6c-.24-.3.22-1.05 1.77-2.9l2.09-2.5 1.93.22c1.07.13 2 .27 2.06.34.4.35-.52 1.17-2.72 2.44l-3.64 2.12c-.91.54-1.22.6-1.48.28z" style="fill:#fff;stroke-width:.31846192"/>
  </g>
  <path d="M270.45 537.52a322.8 322.8 0 0 1-17.03-3.02 238.98 238.98 0 0 1-56.75-19.9 277 277 0 0 1-15.67-8.66 277.87 277.87 0 0 1-17.44-11.55 276.4 276.4 0 0 1-16.3-13c-5.46-4.76-12.86-11.95-13.9-13.5-1.04-1.51-8.06-9.63-11.68-13.48-1.11-1.18-2.12-2.1-2.23-2.03-.11.06-.75-.58-1.42-1.44-.67-.86-1.11-1.56-1-1.56.14 0 1.58 1.32 3.22 2.93 2.07 2.04 2.98 2.74 2.98 2.33 0-.33-.3-1.22-.68-1.99-.37-.76-.6-1.46-.51-1.54.08-.09.68.1 1.33.4 1.16.56 1.19.56 1.72-.16l.54-.71.9.94c.5.51.81 1.08.7 1.27-.11.18.3.99.92 1.8a5.77 5.77 0 0 1 1.12 2.03c0 .31.44 1.16.96 1.89.93 1.28 1.59 1.68 1.59.97 0-.2-.64-1.28-1.42-2.4-1.4-2-1.4-2.03-.63-2.03 1.3 0 4.67 1.89 6.03 3.38 1.07 1.18 1.59 1.47 3.26 1.85 1.15.26 2.4.8 2.95 1.25.88.74 1.14.8 3.1.63 1.65-.14 2.45-.05 3.42.38 1.2.52 1.22.57.52.76-.67.18-.34.47 2.62 2.37 2.23 1.43 3.39 2.36 3.39 2.74 0 .41.32.6 1.2.73.74.1 2.65 1.08 5.07 2.6 2.14 1.35 3.97 2.71 4.07 3.04.12.38.4.53.77.43.66-.18 2.1.5 4.03 1.87 1.06.75 1.73.95 3.66 1.1 2.93.21 9.68 2.35 11.91 3.76a21.5 21.5 0 0 0 3.13 1.6 6.81 6.81 0 0 1 2.38 1.6 27.2 27.2 0 0 0 6.5 4.71c.8.34 1.25.76 1.4 1.34.15.6.01 1.1-.48 1.77-.47.64-.62 1.17-.48 1.72.17.7.37.8 1.57.8 1.17 0 1.34-.08 1.21-.59-.14-.54.06-.58 2.62-.53 2.33.04 2.84.15 3.22.66.28.41.5.86.63 1.34.1.4.3.71.47.71.16 0 .43-.36.6-.8.16-.43.48-.78.7-.78.23 0 2.13.45 4.23.98 2.1.54 4.57 1.07 5.5 1.2a4.3 4.3 0 0 1 2.93 1.47l1.27 1.24.72-.67c.68-.64.9-.65 3.74-.37 1.67.16 3.4.42 3.85.57.5.17 1.04.15 1.4-.05.83-.47 5.07-.09 7.33.66a322 322 0 0 1 5.25 1.83c2.93 1.05 3.72 1.2 6.36 1.22l3.03.03 3.1 2.22c2.62 1.89 3.15 2.42 3.44 3.44.18.67.24 1.5.13 1.85a6.9 6.9 0 0 1-1.16 1.74c-.8.9-.93 1.28-.77 2.13.13.73 0 1.4-.45 2.23-.34.65-.63 1.24-.63 1.3 0 .06.9.7 2.01 1.42a54 54 0 0 1 4.94 3.88c2.57 2.28 2.92 2.7 2.92 3.64 0 .86.17 1.14.95 1.52.83.4.9.53.54 1.02-.33.45-.95.58-3.1.63-2.69.07-4.18.54-5.04 1.58-.33.4-.29.53.18.78.32.16 1.8.69 3.28 1.18 2.75.9 5.69 2.24 6.85 3.14.35.27.56.48.47.47l-2.06-.31zm152.94-34.82c0-.09.3-.7.64-1.35.66-1.23.76-1.97.44-3.18-.13-.48-.59-.83-1.39-1.07l-1.19-.36-.19-2.59c-.1-1.42-.41-3.25-.7-4.07a8.33 8.33 0 0 0-1.68-2.64 6.33 6.33 0 0 0-2.52-1.54c-.75-.2-1.36-.54-1.36-.75 0-.75.92-4.74 1.57-6.8.48-1.53 1.11-2.6 2.44-4.14.98-1.14 2.06-2.5 2.38-3.02.34-.52.6-1.32.6-1.76 0-.54-.44-1.25-1.29-2.07-1.19-1.16-1.28-1.36-1.1-2.5.14-.9.01-1.6-.48-2.62a8.7 8.7 0 0 0-4.2-3.77c-.6-.25-2.66-.76-4.57-1.15-1.9-.38-3.97-.94-4.58-1.26a8.18 8.18 0 0 1-1.9-1.4c-.75-.8-.75-.85-.23-1.95a7.4 7.4 0 0 0 .54-2.62c.01-.93.3-2.1.8-3.1.86-1.74 1-3.7.35-4.86-.35-.54-.8-1-1.34-1.36-1.22-.8-3.6-.8-5.16-.01a24.7 24.7 0 0 0-3.06 2.06c-1.95 1.51-4.7 2.75-6.13 2.75-.5 0-1.32-.45-2.04-1.1a7.9 7.9 0 0 0-2.5-1.48c-.99-.3-1.8-.3-3.51-.02-2.1.35-2.65.64-9.29 5a306.3 306.3 0 0 1-9.54 6.07 11.75 11.75 0 0 1-4.55 1.73 48.8 48.8 0 0 0-6.33 1.73 55.7 55.7 0 0 1-4.68 1.44c-.74 0-3.67 1.63-5.51 3.08l-1.85 1.44-4.95-.5-4.94-.52-4.5 3.29a467.25 467.25 0 0 1-28.58 19.23c-5.5 3.4-13.05 7.79-13.19 7.65a74.7 74.7 0 0 1 4.07-4.7c2.63-2.94 5.23-5.9 7.78-8.9l3.61-4.27-3.74-1.95c-7.38-3.83-14.86-8.37-24.28-14.74a317.58 317.58 0 0 1-20.3-14.95 296.9 296.9 0 0 1-28.4-25.75 262.27 262.27 0 0 1-26.02-30.17 278.51 278.51 0 0 1-15.11-22.47 210.39 210.39 0 0 1-10.58-19.67 248.32 248.32 0 0 1-11.92-32.37 373.82 373.82 0 0 1-5.25-21.01 419.4 419.4 0 0 1-4.16-23.08 457.75 457.75 0 0 1-3.01-26.2c-.34-4-.7-7.36-.8-7.46-.1-.1-.18.06-.18.35s-.12.53-.26.53-.48-.47-.73-1.04c-.38-.81-.42-1.5-.2-3.26.32-2.46.03-6.84-.44-6.84-.17 0-.98 1.4-1.81 3.1-1.3 2.68-1.48 3.31-1.38 4.7.16 2.19.15 6.3-.02 8.59-.14 1.94-.57 2.99-2.62 6.39-1.1 1.82-1.1 1.82-1.3.9-.49-2.36-.95-3.65-2.14-5.95-.7-1.36-1.34-2.42-1.4-2.35-.07.06.01 1.1.19 2.32.4 2.79.42 8.94.03 9.18-.38.24-3.2-3.25-4.14-5.1-.39-.8-.94-2.59-1.21-4l-.5-2.55.86-.7c.78-.61.84-.8.54-1.59-.2-.49-.34-1.96-.34-3.26 0-2.24-.05-2.4-.8-2.68a15.9 15.9 0 0 0-2.86-.51l-2.07-.21v-1.19c.01-.74.13-1.47.34-2.18.2-.55.83-1.29 1.44-1.67.66-.42 1.2-.98 1.6-1.65l.51-.98.42 1c.63 1.5 1.88 2.61 2.91 2.6.5 0 1.1-.13 1.37-.3.26-.16.7-1.22.95-2.34.47-1.98.57-2.12 3-4.19a27.8 27.8 0 0 1 3.19-2.44c.37-.17 1.39-1.7 2.34-3.55a29.85 29.85 0 0 0 1.67-3.54c0-.16-.23-.54-.51-.85-.4-.43-.43-.69-.14-1.22.33-.62.3-.66-.45-.47-.45.1-.82.1-.82-.04s.37-.87.81-1.63l.8-1.38h-.8c-.44 0-.8-.13-.8-.3 0-.83.46-1.3 1.3-1.3.5 0 .93-.1.94-.23l.27-2.82c.22-2.35.36-2.73 1.55-4.3.82-1.07 1.18-1.78.96-1.91-.34-.21-.22-1.4.25-2.64.2-.51.15-.55-.37-.26-.35.2-.95 1.32-1.4 2.65-.44 1.27-.98 2.37-1.2 2.44-.22.07-.49-.13-.6-.45a4.52 4.52 0 0 0-.56-1.04c-.27-.35-.39-.15-.51.93-.2 1.69-.96 2.15-.96.58 0-1.54-.53-3.22-1.27-4-.35-.39-.63-.96-.63-1.28 0-.32-.15-.73-.33-.9-.22-.23-.2-.65.02-1.32.28-.8.25-1.15-.18-1.8-.5-.77-.5-.89.13-2.18.51-.97 1.1-1.9 1.78-2.76l1.12-1.4v1.17c0 .78.15 1.16.44 1.16.25 0 .59-.4.75-.88.16-.48.23-1.46.16-2.17-.12-1.17.02-1.47 1.45-3.18 1.6-1.9 6.96-6.99 9.62-9.1 1.86-1.5 4-2.56 4.87-2.44.48.07.72.36.79.93.08.7-.2 1.01-1.9 2.13a27.7 27.7 0 0 0-3.92 3.28c-1.92 1.99-1.66 1.89 1.48-.56.94-.73 2.28-1.48 2.98-1.67 1.8-.47 3.5.03 4.13 1.24.26.51.48 1.47.47 2.13 0 1.37-.9 3.54-2.12 5.14l-.82 1.07-.7-.87c-.57-.72-.8-.81-1.31-.54-.34.18-.89.63-1.22 1-.6.66-.6.67.57.67.97 0 1.22.13 1.5.86.25.66.16 1.43-.4 3.42-.54 1.97-.74 3.67-.84 7.41a42.83 42.83 0 0 0 0 4.86c.08 0 3.07-1.5 6.65-3.32 4.2-2.13 8.44-4.22 12.7-6.24a96.47 96.47 0 0 0 6.59-3.3c.2-.2 1.1-3.06 1.97-6.37 1.19-4.48 1.87-6.47 2.69-7.78.87-1.4 1.04-1.92.83-2.58-.15-.44-.56-1.84-.92-3.09l-.66-2.28-1.67.45c-2.75.73-2.7.77-2.36-1.77.24-1.71.44-2.27.89-2.4.85-.28 1.88-1.71 1.88-2.64 0-.44.37-1.45.84-2.24.89-1.52.83-1.52 1.92.16.34.52.38.47.4-.45 0-.57.1-1.03.2-1.03s.45.14.78.32c.47.25.67.19.93-.3.19-.35.3-.73.34-1.12 0-.32-.3-.5-.84-.5-.74 0-.8-.08-.6-.87.11-.48.64-1.92 1.18-3.2.53-1.26 1.4-2.74 1.92-3.27.53-.53 2.23-1.6 3.78-2.38 2.42-1.22 2.84-1.34 3.09-.9.22.4.77-.08 2.8-2.42 1.89-2.2 2.51-3.15 2.51-3.85 0-.77.96-1.89 5.9-6.84 3.23-3.26 6.7-6.48 7.7-7.17.99-.69 1.87-1.24 1.96-1.24.09 0-.26 1.23-.78 2.75-.51 1.52-.89 2.81-.83 2.87.06.05.77-1.16 1.59-2.68.8-1.53 1.48-2.64 1.48-2.47 0 .18-.34 1.82-.76 3.66a30.29 30.29 0 0 0-.68 3.43c.05.05.78-1.71 1.62-3.91.84-2.2 2.21-5.04 3.05-6.32 1.68-2.56 4.32-5.2 4.76-4.76.16.16.85 1.6 1.55 3.2a22.7 22.7 0 0 1 1.47 4.46c.14 1.06.06 1.9-.28 2.7-.37.9-.74 1.23-1.64 1.48-.9.29-1.76.67-2.57 1.15a4.3 4.3 0 0 0-1.9 1.98c-.26.63-.43 1.2-.38 1.25.06.06.74-.54 1.5-1.32 1-1.02 1.66-1.43 2.3-1.43.49 0 .89.15.89.34 0 .18-.23.77-.5 1.3-.28.53-.44 1.04-.35 1.13.09.08.8-.44 1.6-1.17l1.44-1.33-.81 2.97a48.72 48.72 0 0 1-1.62 4.88c-.9 2.12-1.45 3.86-1.13 3.54.11-.11 1.52-2.53 3.11-5.37 2.76-4.9 2.96-5.17 3.83-5.1.5.03 1.27.43 1.71.87.64.63.8 1.08.75 2.16-.03.74-.85 4.04-1.8 7.31a85.73 85.73 0 0 0-2.08 8.38c-.22 1.9-.33 3.8-.34 5.71 0 3.23-.01 3.3-.8 3.56l-.79.27 1.6 2.38c1.34 2.03 1.58 2.62 1.58 3.9 0 .83.05 1.51.1 1.51.06 0 4.43-1.57 9.71-3.5a972.84 972.84 0 0 1 20.2-7.02l11.06-3.7c.3-.12-.09-.43-1.12-.9a14.82 14.82 0 0 1-3.66-2.86 25.25 25.25 0 0 0-4.29-3.43c-1.34-.8-2.6-1.72-3.77-2.74a15.5 15.5 0 0 1-2.34-2.8l-.8-1.37 1.14-1.32c.62-.73 1.37-2.03 1.65-2.9.61-1.83.46-3.82-.36-4.72-.53-.59-.53-.61.05-.62.33 0 2.35.17 4.48.38l3.88.39 1.47 2.8 1.48 2.8h-1.14c-1.46 0-3.45.82-3.28 1.35.25.76 2.2 1.8 6.4 3.42 2.3.9 4.62 1.82 5.15 2.05.76.34 1.08.79 1.51 2.16.3.96.55 1.82.55 1.92 0 .1-.6.23-1.34.3-1.28.13-1.44.04-3.1-1.67a16.02 16.02 0 0 0-3.15-2.5c-.76-.39-1.45-.64-1.54-.55-.08.08 1.1 2.32 2.62 4.96 2.1 3.62 2.9 4.77 3.3 4.65l9.58-2.87c4.99-1.5 9.17-2.75 9.3-2.8.2-.07-4.7-5.9-9.3-11.06l-2.05-2.3 1.1.23c2.04.45 21.7 7.07 31.19 10.5a929.19 929.19 0 0 1 43.21 16.83c2.67 1.13 4.93 1.94 5.01 1.8.09-.13-.23-1.09-.69-2.11-.73-1.6-.86-2.38-.94-5.48l-.1-3.61 1.02.77c.62.49 1.12 1.1 1.49 1.8.25.55.6.96.79.9.2-.07.55-.5.8-.95.42-.73.41-.95-.07-1.97-.51-1.06-.51-1.2-.03-1.94.5-.76.49-1.26-.08-3.5l-.22-.9 1.84 1.04c1.69.95 2.72 1.11 2.72.4 0-.15-.42-.46-.93-.67-.66-.28-.98-.67-1.11-1.4-.19-1-.3-1.05-2.9-1.69-1.5-.36-2.79-.54-2.88-.4-.09.15-1.27.23-2.64.19-1.98-.07-2.67-.22-3.49-.8a6.66 6.66 0 0 1-1.01-.81c0-.05 1.12-.03 2.49.05 1.9.11 2.72.03 3.5-.38a6.16 6.16 0 0 0 1.85-1.78c.73-1.1.98-1.27 2.05-1.27.66 0 1.58.15 2.04.32.74.28.82.25.65-.27-.15-.5.11-.63 2.02-.98 1.33-.23 3.12-.3 4.54-.18l2.34.2-2.22-1.43c-1.99-1.28-2.29-1.39-2.75-.97-.41.38-.8.4-1.94.15-.68-.15-1.36-.33-2.03-.55-.54-.2-.56-.17-.17.32.25.3.38.6.3.69a8.53 8.53 0 0 1-2.3-.48c-1.2-.34-2.33-.84-2.53-1.1-.21-.3-1.5-.72-3.07-1.03a37.7 37.7 0 0 1-4.06-.99 7.14 7.14 0 0 1-2.5-1.74c-.93-1.03-2.09-1.67-6.24-3.44-2.8-1.2-5.17-2.25-5.26-2.34-.1-.1.07-.53.36-.97.4-.53.93-.96 1.54-1.23l1.01-.4-1.55-1.08c-1.48-1.01-1.53-1.1-.94-1.52.59-.4 1.2-.8 1.82-1.15l1.2-.7-1.92-.93c-1.06-.5-1.92-1.03-1.92-1.17 0-.15.5-.26 1.11-.26.61 0 1.11-.12 1.11-.27 0-.14-1.37-.45-3.04-.68-2.3-.31-3.1-.54-3.2-.93a12.53 12.53 0 0 0-2.42-4.14l-1.01-1.1 1.1.21c1.02.2 1.05.18.48-.26a2.81 2.81 0 0 0-1.46-.47c-.47 0-1.7.29-2.73.65a6.6 6.6 0 0 1-3.11.47c-1.69-.26-6-2.07-10.23-4.3-2.64-1.4-3.97-1.9-5.4-2.07-1.06-.13-2.02-.4-2.15-.6-.4-.62-.27-1.16.3-1.16.88 0 .07-.5-1.75-1.08a6.39 6.39 0 0 0-2.76-.33c-.84.16-1.1.09-1.18-.32-.1-.47-.87-.55-6.16-.68a168.6 168.6 0 0 1-8.42-.39c-2.38-.22-2.38-.22-1.55-.76.5-.37 1.15-.48 1.74-.29.96.26 2.66-.14 2.66-.63 0-.16 1.26-.32 2.79-.35 1.53-.03 2.14-.1 1.35-.16-1.7-.12-4.14-.73-4.14-1.03 0-.3 3.9-1.5 6.19-1.92 1.04-.18 3.16-.33 4.71-.33 4.49 0 11.62.6 19 1.6 3.76.51 6.88.87 6.95.8.06-.05-.79-.41-1.9-.78-1.1-.37-3.48-.81-5.27-.98-1.8-.17-3.56-.47-3.92-.66-.36-.19-.6-.51-.52-.72.06-.2.54-.45 1.04-.54.85-.14.74-.23-1.27-1.1-1.75-.73-2.07-.97-1.58-1.16.33-.13 1-.25 1.48-.26 1.26-.03 1.12-.9-.23-1.47-.77-.32-2.34-.46-5.2-.46-3.57 0-4.17-.08-4.63-.58a2.4 2.4 0 0 1-.52-.76c0-.26 1.47-.8 3.82-1.39a12.7 12.7 0 0 1 4.14-.36c1.9.15 2.23.07 4.13-.93l2.07-1.09-2.3.17-4.62.34c-1.83.13-2.18.1-1.72-.2.49-.3.52-.42.16-.65a7.2 7.2 0 0 0-2.34-.28c-1.05-.01-2.77-.22-3.82-.46-1.65-.4-2.2-.4-4.13.01-1.22.26-3.6.68-5.3.93-2.91.44-3.17.43-4.9-.17-1.27-.4-2.58-.61-3.9-.63-1.67 0-2-.08-1.72-.42.2-.23 1.08-.76 1.96-1.17.89-.41 1.5-.87 1.35-1.01-.14-.14-2.04-.12-4.22.05-2.18.17-4.25.31-4.6.31-1 .02-.12-.62 1.8-1.3l1.7-.6-4.3.19c-3.87.16-7.65.67-9.4 1.24-.62.21-.62.2-.01-.29.33-.27.52-.58.42-.69-.31-.3-3.57.75-4.46 1.45-.51.38-1.12.6-1.76.65-.51 0-1.71.15-2.65.34-1.95.38-11.77.6-11.56.25.08-.13-.69.1-1.7.49-1.74.68-4.53 1.31-4.53 1.02 0-.07.72-.65 1.6-1.28 1.5-1.08 2-1.22 7.88-2.27a285.83 285.83 0 0 1 23.15-3.06c6.42-.57 32.1-.58 38.2-.01a253.67 253.67 0 0 1 40.26 6.79c10 2.57 22.02 6.63 32.3 10.92 3.9 1.67 7.76 3.43 11.57 5.28a221 221 0 0 1 27.63 15.78 239.01 239.01 0 0 1 27.5 21.31c5.74 5.16 16.99 16.7 21.83 22.43a235.33 235.33 0 0 1 31.1 46.7 222.8 222.8 0 0 1 13.45 32.4 232.76 232.76 0 0 1 10.63 48.7c.68 6.28 1.31 15.33 1.24 17.82-.02.88-.1 1.23-.17.8l-1.09-7.8a159.28 159.28 0 0 0-3.44-18.14l-.6-2.23-.03 2.94c-.02 1.62-.14 2.95-.27 2.95-.3 0-2.12-2.7-2.66-3.9-.36-.81-.8-1.03-1.78-.9-.22.02-.95-.83-1.63-1.9l-1.24-1.96-.83 2.66c-.98 3.16-3.36 8.13-4.74 9.95-1.13 1.47-4.12 4.64-4.38 4.64-.1 0-.8-.8-1.56-1.78-.77-.97-1.5-1.65-1.63-1.5-.13.14-.54 1.4-.9 2.8-.52 1.95-.91 2.76-1.65 3.43-.78.7-1.1.81-1.58.56-.89-.48-3.22-.4-4.26.15-.88.46-.95.44-2.55-.92a18.6 18.6 0 0 0-2.66-1.9c-.62-.3-1.3-.48-1.99-.52-.76 0-1.11.23-1.6 1.03-.67 1.1-.83 2.64-.34 3.4.18.3.11.71-.2 1.2-.46.69-.45.74.17.74.4 0 1.24.68 2.17 1.76 1.28 1.48 1.65 1.73 2.33 1.58.7-.16 1.19.24 3.8 3.07l2.99 3.26-.2-1.34c-.15-.89-.27-1.79-.38-2.69-.14-1.24-.05-1.13 1.25 1.53.77 1.59 1.6 3.06 1.86 3.27.38.3.52.14.86-.98.22-.74.94-1.94 1.6-2.65a5.93 5.93 0 0 0 1.56-2.96c.2-.91.36-3.77.37-6.34l.01-4.68 1.27 3.02c.71 1.72 1.63 3.36 2.12 3.79l.86.76 1.28-1.49 1.3-1.49 1.2 1.45 1.21 1.45-.08 6.13c-.05 4.15.05 6.48.3 7.26.35 1 .3 1.33-.3 2.7-.44 1-.67 2.07-.66 3.16a5.03 5.03 0 0 1-.76 2.96 4.65 4.65 0 0 0-.71 3.18c.1 1.93-.1 2.39-2.63 6.4a5.47 5.47 0 0 0-1.1 3.83c0 1.95-.13 2.34-1.99 5.8a51.79 51.79 0 0 0-2.73 5.88c-.46 1.33-1 2.63-1.6 3.9-.48.93-1.7 2.6-2.73 3.7-1.37 1.47-2 2.47-2.43 3.8-.57 1.8-2.38 4.32-3.1 4.32-.21 0-1.13-1.54-2.03-3.42-1.06-2.2-1.7-3.98-1.79-4.97a5.68 5.68 0 0 0-.75-2.39 8.73 8.73 0 0 0-2.56-1.8c-1.38-.68-2.08-1.24-2.43-1.97a4.56 4.56 0 0 0-1.33-1.57 5.3 5.3 0 0 0-2.19-.62 9 9 0 0 1-2.47-.55c-.94-.4-1.17-.7-1.5-1.98a15.7 15.7 0 0 0-1-2.73 11.3 11.3 0 0 0-1.75-2.34c-.82-.83-1.4-1.13-2.14-1.12a3.5 3.5 0 0 0-1.45.27c-.3.2-1.3-.58-3.36-2.63-3.45-3.4-6.49-5.35-8.13-5.22l-1.1.09-.54-2.17c-.3-1.2-.65-2.27-.77-2.39-.12-.11-.11 1.41.01 3.4l.24 3.62-1.08-.22c-.6-.13-2.28-.86-3.75-1.64a17.08 17.08 0 0 0-2.78-1.3c-.06.07.3.68.82 1.38.6.81 1.9 1.82 3.68 2.84 1.51.87 3.13 2 3.6 2.53 2 2.28 4.24 4.22 6.04 5.25 1.76 1.01 1.96 1.24 2.15 2.39.11.7.4 1.6.66 1.99.48.75 1.37.94 1.9.4.21-.21.77-.14 1.69.22 1.3.5 1.45.72 3.55 4.9 1.34 2.67 2.41 4.44 2.76 4.53.3.09 1.14.26 1.84.37.7.12 1.6.42 1.99.67.4.26 1.36 1.75 2.15 3.32.87 1.74 1.63 2.86 1.93 2.86.26 0 .92-.23 1.46-.5.6-.32 1.3-.44 1.98-.33 1.64.31 4.9 2 5.43 2.82.33.51.44 1.14.31 1.73-.18.89-.08 1.03 1.3 1.8 1.09.6 1.64.76 2.05.54.3-.17 1.48-1.6 2.6-3.21l4.33-6.14a95.87 95.87 0 0 0 3.82-5.85c.84-1.44 1.63-2.62 1.76-2.62.72-.05-.32 7.82-2.46 18.6-1.37 6.88-2.38 10.25-4.7 15.6-.62 1.4-4.11 8.56-7.78 15.92a646.33 646.33 0 0 0-9.26 19.25c-2.42 5.5-2.55 5.9-1.97 6.12.35.12.63.29.63.36s-.29 1.01-.63 2.1c-.4 1.3-.67 2.64-.84 4-.2 1.96-.18 2.02.47 1.85.37-.1.68-.03.68.14s-.44 1.8-.98 3.62a52.21 52.21 0 0 1-2.24 6c-1.51 3.23-5.14 8.74-8.08 12.26a173.86 173.86 0 0 1-5.66 6.3c-3.42 3.62-3.56 3.82-4.13 6.05a30.05 30.05 0 0 1-1.66 4.52c-.8 1.68-1.68 2.82-3.57 4.62a125.64 125.64 0 0 1-3.6 3.35c-.75.68-1.41 1.45-1.98 2.28a44.4 44.4 0 0 1-2.9 3.66c-2.14 2.44-10.55 10.36-15.97 15.04a78.89 78.89 0 0 1-5.92 4.6 83.56 83.56 0 0 1-7.22 4.12 88.69 88.69 0 0 1-4.66 2.28c-.1 0-.19-.07-.19-.16zm-115.94-38.2a306.7 306.7 0 0 0 28.86-46.63c2.16-4.29 5.04-10.3 6.4-13.37a305.78 305.78 0 0 0 9.06-23.07c2.28-6.67 5.6-18.08 6.86-23.56.48-2.1 1.11-2.7 1.23-2.83 7.12-1.2 13.77.13 20.25 1.8 2.7.7 5.5 1.35 6.2 1.42.97.1 1.5-.02 2.14-.54a3.54 3.54 0 0 0 1.03-3.56c-.13-.41-1.98-2.54-4.1-4.73-2.13-2.18-4.9-5.31-6.16-6.95a85.7 85.7 0 0 1-4.1-5.89 84.88 84.88 0 0 1-3.63-6.73c-1-2.1-2.33-5.4-2.95-7.33-.7-2.2-1.29-4.44-1.78-6.7a81.17 81.17 0 0 1-1.01-7.15 72.2 72.2 0 0 1-.19-8.1c.2-4.51.86-9.52 1.85-14.01 1-4.53 2.73-10.13 4.64-14.96 3.9-9.88 8.67-18.76 16.33-30.43 1.58-2.4 1.91-3.14 1.91-4.25 0-1.67-1-3.28-2.59-4.14-1.14-.6-1.14-.6-5.88.25-9.55 1.72-18.88 2.76-24.77 2.76h-2.96l-1.83-5.33a321.11 321.11 0 0 0-7.64-19.82 344.45 344.45 0 0 0-10.9-22.44 322.44 322.44 0 0 0-16.73-27.18c-3.85-5.58-12.4-16.94-12.67-16.84-.14.05-1.45 1.12-2.91 2.38-1.46 1.26-4.6 4.27-6.95 6.69a163.65 163.65 0 0 0-19.55 24.45 205.74 205.74 0 0 0-11.94 20.69 230.13 230.13 0 0 0-12.26 28.67 243.47 243.47 0 0 0-6.83 22.87l-1.83 7.3-2.35 1.36a109.8 109.8 0 0 1-13.9 6.29c-2.64.94-5.3 1.8-8 2.58-3.33.9-6.7 1.68-10.08 2.37-4.12.82-6.05 1.35-6.53 1.79a5.58 5.58 0 0 0-1.15 1.68c-.35.81-.37 1.3-.1 2.1.18.57.66 1.34 1.05 1.7.39.37 2.21 1.2 4.05 1.83 5.2 1.79 10.25 3.95 15.13 6.48a92.96 92.96 0 0 1 14.37 9.14l2.3 1.84v9.4c0 9.53.29 15.14 1.17 22.95a249.79 249.79 0 0 0 7.16 37.4 283.5 283.5 0 0 0 11.94 34.47c2.98 7 8.15 17.64 11.6 23.85 6.69 12.01 14.67 23.6 22.55 32.7 3.53 4.08 11.83 12.32 12.27 12.18.19-.05 1.95-2.23 3.92-4.84zm61.03-19.27a8.16 8.16 0 0 0-.81-2.06c-.12-.08-.4.07-.62.33-.22.26-.83.48-1.36.48-.53 0-1.75-.45-2.7-.98a8.06 8.06 0 0 0-1.81-.88c-.2.23-.81 1.5-.81 1.67 0 .1.5.18 1.1.18.6 0 1.81.16 2.68.34a5.09 5.09 0 0 1 3.78 3.17c.47 1.08.49 1.09.8.39.25-.53.18-1.2-.25-2.64zm109.9-3.64c.04-.97.3-2.3.58-2.95.28-.65.59-2.23.69-3.5.17-2.16.14-2.3-.46-2.3-.56 0-.66.26-.8 2.04a8.5 8.5 0 0 1-1 3.55 5.9 5.9 0 0 0-.84 3.2c0 1.65.03 1.7.88 1.7.84 0 .88-.06.95-1.74zm-6.02-5.75c.06-.05-.07-.9-.3-1.9-.3-1.4-.56-1.87-1.15-2.09-.71-.27-.74-.4-.56-2.12.18-1.65.11-1.97-.7-3.2l-.89-1.36-.27 1.05a9.68 9.68 0 0 0-.08 2.8c.1.96.19 2.3.17 2.99 0 .7.16 1.36.4 1.5.22.15.75.27 1.16.27.68 0 .74.13.63 1.27-.12 1.2-.09 1.25.68 1.07.32-.06.62-.16.91-.28zm7.23-20.34c.44-.57 1.71-2.86 2.83-5.08 1.77-3.5 1.94-4 1.35-3.82a16.07 16.07 0 0 0-5.65 3.52l-1.8 1.72-.22 2.78c-.12 1.53-.29 3.35-.38 4.05l-.17 1.27 1.62-1.7a44.2 44.2 0 0 0 2.42-2.74zm-32.78-94.48l1.4-2.7a14.68 14.68 0 0 1 2.26-3.39c.5-.42 2.02-1.13 3.39-1.6a20.3 20.3 0 0 0 4.15-1.97l1.67-1.16v-5.77c0-3.72-.17-6.51-.46-7.88-.4-1.89-.8-2.82-2.8-6.43a5.8 5.8 0 0 1-.56-2.36c0-.96-.13-1.35-.45-1.35-.26 0-.64.5-.86 1.11-.33.9-.62 1.15-1.48 1.32-.6.1-1.13.36-1.19.56l-.92 3.06c-.47 1.56-.9 3.13-1.28 4.71-.33 1.47-.36 1.98-.08 1.88.2-.07.38-.44.38-.82 0-.46.37-.87 1.11-1.24.6-.3 1.42-1.03 1.81-1.62l.71-1.06-.19 1.7c-.1.94-.38 2.06-.6 2.5a8 8 0 0 1-1.37 1.7c-.7.68-1.18.88-1.78.77-.73-.14-.84-.02-1.14 1.15a441.22 441.22 0 0 1-4.71 16.65l-1.24 3.88 2.09-.79a29.6 29.6 0 0 0 2.14-.85zm10.22-59.3l.81-1.78-.58-1.49-.58-1.48-.2 1.43c-.5 3.33-.65 5.1-.46 5.1.1 0 .56-.8 1.01-1.78zm27.28-4.78c.43-.3.83-.32 1.43-.09.46.18 1.27.24 1.81.13.54-.1 1.42-.64 1.95-1.21.54-.57 1.63-1.94 2.42-3.04l1.44-2.01-1.4-1.3a19.76 19.76 0 0 1-2.78-3.56c-1.32-2.17-1.43-2.27-2.83-2.47a6.74 6.74 0 0 1-2.2-.7 10.96 10.96 0 0 1-2.02-2.56c-.93-1.54-1.58-2.22-2.48-2.62a7.46 7.46 0 0 1-2.13-1.59 5.6 5.6 0 0 1-1.12-2c-.12-.55-.34-.99-.48-.99-.15 0-.68.24-1.18.52-.87.5-1.05.48-4.3-.52l-3.41-1.05.78-1.32.77-1.32-1.1-1.04c-.61-.58-1.11-1.28-1.11-1.57 0-.28.65-1.18 1.44-1.98l1.45-1.47-1.53-1.63a81.21 81.21 0 0 1-2.53-2.84l-1.01-1.22-.89.66c-1.7 1.27-2.63 2.8-3.3 5.4-.37 1.4-.8 4.13-.96 6.08l-.3 3.54 1.21 2.8c1.2 2.77 1.23 2.8 2.67 3.17.94.23 2.02.87 3.04 1.79 1.12.96 2.4 1.73 3.77 2.27 2.38.92 7.56 2.46 8.28 2.46.38 0 .37.15-.03.95-.31.7-.48 1.46-.49 2.23 0 .72.22 1.83.49 2.49.27.65 1.37 2.5 2.43 4.13l1.94 2.95.84-.53 1.42-.94zm-349.98-24.46c.21-.92.33-1.85.35-2.8v-1.36l-.82 1.43c-.44.79-1.17 1.81-1.62 2.28l-.8.85.9.5c.5.26 1.08.49 1.28.5.19 0 .51-.63.7-1.4zM481.4 215.3c.76-.56.87-.85.87-2.35 0-.94-.23-2.16-.51-2.72-.55-1.09-4.65-6.62-4.8-6.48-.05.05.06.95.25 2 .27 1.52.24 2.16-.15 3.29l-.48 1.4 1.64 2.94c.92 1.64 1.79 2.86 1.97 2.75.41-.27.81-.54 1.2-.83zm9.79-30.26c0-.23-4.21-7.33-4.6-7.75-.3-.33-.49-.29-.94.2-.53.6-.48.76 1.22 4.15l1.77 3.54h1.27c.7 0 1.28-.06 1.28-.14zM234.54 161.3c.8-.3.83-.37.32-.66-.43-.19-.92-.26-1.4-.21-.5.04-.93.37-1.1.85-.25.68-.2.73.5.55.44-.1 1.2-.35 1.68-.53zM483.18 160l.98-.34-.7-1.08c-.62-.96-.86-1.09-2.07-1.1a5.7 5.7 0 0 1-2.07-.35 9.76 9.76 0 0 1-1.62-1.2c-.96-.86-.88-.55.27 1.03.66.92 3.57 3.39 3.99 3.39.13 0 .67-.16 1.22-.35zM99.99 494.6c0-.18.15-.32.34-.32.18 0 .25.14.14.32-.11.17-.26.31-.34.31-.08 0-.14-.14-.14-.31zm52.16-29.5a1.19 1.19 0 0 1-.72-.68c-.1-.3-.28-.73-.39-.97-.13-.3.02-.39.54-.32.47.07.88.48 1.15 1.15.23.57.31 1.02.18 1-.13-.02-.48-.1-.76-.18zm-22.32-10.97c-.48-.36-.8-.79-.69-.96.23-.36.98.2 1.43 1.05.18.33.28.58.23.57-.05 0-.49-.3-.97-.66zm351.96.12c.48-1.27 3.74-6.77 5.24-8.83a30.78 30.78 0 0 0 2.38-3.81l2.23-4.63c.9-1.89 2.7-4.7 4.8-7.48 3.04-4.03 4.67-6.56 8.27-12.89l1.18-2.07-.2 1.38c-.22 1.62-1.3 4.77-2.64 7.7a78.92 78.92 0 0 1-2.78 5.24c-3.2 5.51-9.93 16.14-11.85 18.68-2.9 3.84-5.92 7.27-6.4 7.27-.29 0-.37-.2-.23-.56zm-354.68-15.15c-.97-.35-1.64-.98-1.65-1.56-.01-.42 1.06-.25 2.49.4.8.36 1.32.8 1.25 1.03a.77.77 0 0 1-.59.46c-.25.03-.92-.12-1.5-.33zm-6.27-3.57a8.4 8.4 0 0 0-2.13-.77c-.3 0-.68.23-.85.53-.26.47-.43.4-1.36-.6a10.78 10.78 0 0 0-2.5-1.84c-1.65-.82-2.47-1.49-2.95-2.38-.33-.62-.32-.62.6-.03l1.64 1.07c.4.25.8.39.9.3.1-.1-.62-1.16-1.58-2.35a13.8 13.8 0 0 1-1.65-2.28c.06-.06 1.09.39 2.29 1 2.87 1.46 10.78 8.26 9.46 8.14-.15-.01-1-.37-1.87-.8zm-15.13-7.63c-.74-.97-1.29-1.82-1.21-1.9.22-.22 2.38 1.66 3.14 2.72.65.91.65.94.05.94-.38 0-1.15-.7-1.98-1.76zm1.1-3.1c-1.3-.76-2.85-1.8-3.24-2.14-.25-.27-.4-.63-.4-1 0-.36-.57-1.3-1.28-2.11a22.96 22.96 0 0 1-2.23-3.12 7.8 7.8 0 0 0-1.71-2.16 20.21 20.21 0 0 1-2.76-3.3 66.95 66.95 0 0 0-2.63-3.51c-.35-.4-.9-.72-1.2-.72-.64 0-1.24-.9-1.24-1.86 0-1.35 1.39-.2 4.15 3.47a42.86 42.86 0 0 0 3.43 4.18c.32.23 1.69 1.87 3.05 3.64 1.35 1.77 2.81 3.38 3.24 3.57.43.2.77.51.77.7 0 .18.8 1.1 1.75 2.04 1.67 1.63 2.22 2.73 1.36 2.72-.38-.06-.74-.2-1.06-.4zm-18.36-29.76c-2.22-4.6-3.89-8.8-6.45-16.23-.07-.22-.42-.4-.78-.4-.47 0-.65-.2-.65-.77 0-.42-.28-1.42-.62-2.22-.84-1.95-2.79-4.97-3.22-4.97-.18 0-.27.26-.18.56.58 2.1.59 2.15.24 1.82-.79-.75-4.16-13.54-6.08-23.07-1.6-8.21-2.83-16.5-3.66-24.82-.37-4.56-.66-9.12-.85-13.68-.26-6.21-.25-10.65 0-16.9.2-4.65.59-10.81.86-13.69.7-7 1.65-14 2.88-20.93a237.26 237.26 0 0 1 24.93-70.2 245.73 245.73 0 0 1 11.44-18.83 267.89 267.89 0 0 1 11.3-15.43c4.4-5.41 9-10.66 13.76-15.75 4.23-4.5 11.91-11.8 17.32-16.47 4.83-4.16 15.07-12.16 13.77-10.74-.22.23-.4.53-.4.66s1.93-.69 4.29-1.81a54.83 54.83 0 0 1 4.53-2.04c.14.01-.24.44-.85.96l-1.1.94h3.75l-.65.72c-.36.39-.6.87-.53 1.06.07.19-.48.62-1.23.95-.75.34-2.36 1.33-3.6 2.2-1.22.88-4.3 3.03-6.84 4.76a52.92 52.92 0 0 0-7.16 5.75c-1.4 1.43-4.55 4.32-7 6.43a120.52 120.52 0 0 0-6.05 5.5l-1.6 1.68 1.08-.2c.93-.17 1.03-.13.83.36-.13.3-.47 1.17-.75 1.92-.44 1.16-.45 1.4-.06 1.64.26.16.77.16 1.2-.01.52-.2.7-.18.56.04-.1.18-1.73 1.64-3.6 3.24a46.07 46.07 0 0 0-3.5 3.17c-.06.14.16.17.48.06.32-.1.06.25-.58.8-.78.66-1.11 1.18-1.01 1.57.1.36-.29 1.13-.99 2a65.58 65.58 0 0 0-6.1 9.49c-1.62 3.11-4.23 6.4-4.25 5.36 0-.3-.15-.56-.3-.56-.17 0-.6.42-.97.93-.97 1.36-2.24 4.22-2.24 5.05 0 .54.22.77.91.9l.92.19-1.75 2.53c-.96 1.4-1.69 2.6-1.62 2.66.07.07.76-.42 1.55-1.08.81-.7 1.93-1.3 2.62-1.43.66-.13 1.33-.14 1.5-.04.16.1-.2.83-.8 1.63-.95 1.23-1.31 2.33-1.14 3.39.02.13-.3.92-.72 1.75-.41.83-.86 1.83-.98 2.22-.19.62-.1.72.6.72.72 0 .81.13.81 1.11 0 .62.15 1.12.32 1.12s.7-.61 1.16-1.36c.47-.74 1-1.45 1.2-1.58.24-.15.51-.23.8-.24.34 0 .4.38.25 1.8-.17 1.67-.33 1.94-2.04 3.7-1.16 1.19-1.55 1.74-1.05 1.49.44-.22 1.18-.67 1.64-1 .5-.33 1.09-.54 1.69-.58.5 0 1.17-.35 1.66-.88a9.7 9.7 0 0 0 1.44-2.24c.38-.85 1.2-1.79 2.16-2.52 1.3-.96 1.6-1.38 1.77-2.45.34-2.14 1.6-4.52 3.15-5.98.81-.75 2.36-2.29 3.45-3.4 1.96-2.01 6.49-5.35 6.82-5.02.3.3-2 4.06-4.35 7.17a52.33 52.33 0 0 0-3.28 4.84c-.78 1.4-1.33 1.99-2.26 2.4-1.67.76-2.22 1.69-1.96 3.25.2 1.14.13 1.31-.77 1.95a5.52 5.52 0 0 0-1.93 2.7c0 .1.17.18.38.18s.8-.4 1.31-.88l.93-.88-.23 1.12c-.19.77-.46 1.52-.8 2.23-.32.6-1.54 2.18-2.72 3.48a16.34 16.34 0 0 0-3.8 6.39c-.23.78-.22.77.84-.19.59-.54 1.7-1.46 2.46-2.04.98-.8 1.87-1.7 2.66-2.69.7-.89 1.58-1.69 1.95-1.78.37-.1 1-.67 1.38-1.27 1.69-2.65 2.35-3.5 3.13-4 .72-.48.89-.5 1.15-.1.17.24.25 1.52.19 2.83a10.1 10.1 0 0 1-1.14 4.52 10.18 10.18 0 0 1-1.85 2.79c-.46.36-.93.65-1.04.65-.12 0-.37-.4-.55-.87-.33-.87-.35-.86-1.29 1.19-.6 1.34-1.1 2.72-1.5 4.14a8.73 8.73 0 0 1-1.25 2.82 15 15 0 0 1-4.94 3.2l-1.62.65-.45-.86c-.33-.63-.36-1.04-.11-1.58.26-.58.2-.86-.27-1.39-.56-.62-.62-.62-1-.1a3.3 3.3 0 0 0-.41 1.62c0 .57-.13 1.05-.3 1.05-.15 0-1.17.74-2.25 1.64-1.58 1.32-2.03 1.56-2.27 1.2-.29-.43-.2-2.15.23-4.03l.19-.88-.66.96c-.99 1.41-1.17 2.88-.53 4.23l.55 1.15-2.81 2.6c-2.69 2.49-2.82 2.57-2.92 1.76a2.48 2.48 0 0 0-.38-1.12c-.17-.17-.81.19-1.57.87a5.1 5.1 0 0 1-1.7 1.17c-.23 0-.55.45-.72 1a2.78 2.78 0 0 1-.85 1.36c-.41.25-.73.23-1.2-.06-.57-.36-.76-.28-1.6.68a7.43 7.43 0 0 1-1.84 1.51c-.5.24-2.45 2.09-4.33 4.1-3 3.21-3.64 4.1-5.17 7.22-1.7 3.43-1.74 3.58-1.23 4.34.49.75.47.9-.27 2.66-.51 1.28-.95 2.6-1.3 3.93-.4 1.56-.78 2.28-1.55 2.93l-1.01.87h.8c.44.01 1.1.22 1.46.47.5.35.75 1.1 1.07 3.14.23 1.47.35 3.87.26 5.32-.12 2.08-.03 2.98.44 4.2.35 1 .55 2.07.58 3.15 0 1.38.13 1.71.94 2.4a4.24 4.24 0 0 1 1.14 1.42c.14.39.44.7.81.87.58.22.57.32-.3 2.13-.49 1.05-.98 2.5-1.1 3.2-.11.73-.59 2.16-1.05 3.2-.95 2.08-1.05 3.44-.64 8.56.25 3.15.67 4.93 1.18 4.93.14 0 .34-.28.45-.62.1-.34.7-1.06 1.3-1.6.95-.82 1.15-1.23 1.29-2.64.09-.92.51-3.39.94-5.49.36-1.75.67-3.52.94-5.29.17-1.43.21-1.47 1.43-1.64.69-.1 1.9-.48 2.7-.86a7.34 7.34 0 0 0 2.71-2.48c.79-1.15 1.42-2.4 1.87-3.71.82-2.64 1.43-7.46 1.22-9.5a5.1 5.1 0 0 1 .18-2.31c.19-.35 1.17-1.44 2.17-2.44 1.6-1.57 1.94-2.12 2.65-4.39.45-1.42.82-2.88.82-3.24 0-.36.62-1.23 1.42-1.97 1.24-1.16 1.44-1.54 1.64-3.06.15-1.07.43-2.1.82-3.1.4-.93.85-1.42 1.4-1.56.44-.11.83-.15.87-.08l.96 1.5c.5.77 1.33 1.56 1.9 1.8.55.23 1.13.34 1.28.25.61-.38.84.89.84 4.73v4.04l1.32 1.08 1.3 1.09-1.28 2.68a24.87 24.87 0 0 0-1.5 3.76c-.2.82-.47 1.62-.82 2.38a6.8 6.8 0 0 0-.6 2.15c0 .46.21 1.35.47 1.98.27.63.48 1.57.48 2.1 0 .56.22 1.07.55 1.25.39.22.9.12 1.76-.32.67-.34 1.3-.84 1.41-1.1.1-.28.53-.63.95-.79.42-.15 1.13-.9 1.57-1.64 3.52-5.88 4-6.58 4.4-6.42.32.12.36.45.15 1.34-.16.64-.29 2.46-.3 4.04a54 54 0 0 1-.32 5.25c-.23 1.8-.18 3.36.2 6.4l.51 4-.98.98c-.68.68-.99 1.3-.99 1.97 0 .54.5 1.97 1.1 3.17.67 1.31 1.03 2.43.92 2.83-.13.52.1.8 1.1 1.3.92.48 1.3.9 1.45 1.6.15.8.45 1.05 1.77 1.52l1.59.56-1.98 1.23c-.74.46-1.47.94-2.19 1.45-.13.11.55.16 1.51.1 1.39-.09 1.78 0 1.94.42.1.28.04.86-.15 1.28-.33.73-.29.76 1 .86 1.1.08 1.4.25 1.76 1 .38.8.36 1.15-.21 2.86-.4 1.2-.53 2.08-.35 2.26.5.52.33 1.64-.38 2.55a9.04 9.04 0 0 1-1.91 1.63c-1.07.67-1.47.75-2.98.58-1.24-.15-1.9-.09-2.25.2-.28.24-.78.96-1.11 1.6-.36.72-1.16 1.51-2.02 2.01l-1.42.84-2.97-.78a67.04 67.04 0 0 1-9.08-3.03l-1.66-.71-.94.67a6.5 6.5 0 0 0-1.63 2.1c-.57 1.17-.86 1.43-1.55 1.43a3.6 3.6 0 0 0-1.67.56c-.46.3-2.14 2.06-3.75 3.9-2.07 2.37-2.77 3.37-2.42 3.45.3.06 1.29-.75 2.41-1.97a13.38 13.38 0 0 1 3.72-2.98 7.58 7.58 0 0 1 4.1-.89c1.98 0 2.4.1 3.1.77 1.17 1.1 1.11 2.55-.16 4l-.98 1.12-.8-.63c-.95-.74-1.64-.52-.91.29.27.3.5.73.5.95 0 .27.28.33.9.2.6-.13 1.03-.05 1.29.26.25.3.27.53.06.66-.62.39-.93 2.4-.67 4.3.25 1.75.4 2 2.27 3.82 1.69 1.65 2.16 1.94 2.98 1.86.82-.08 1.1.1 1.84 1.18.48.7.87 1.37.87 1.49 0 .11-.75.37-1.66.57-.93.2-2.63.63-3.8.98a7.29 7.29 0 0 0-3.59 2.08c-.8.8-1.64 1.4-1.86 1.33-.52-.18-1.14-2.04-1.16-3.52-.01-.84.24-1.55.8-2.3.8-1.04.8-1.07.18-1.4-.3-.17-.62-.29-.96-.34-.54 0-1.36 1.02-1.18 1.47.12.32-.15.44-1.02.44-.65 0-2.3.27-3.67.6-1.77.42-2.76.86-3.42 1.49-.75.71-.94 1.16-.94 2.26 0 .79.35 2.12.84 3.18.6 1.31.74 1.97.52 2.32-.19.3-1.01.57-2.16.7-1.15.12-2 .4-2.24.71-.27.38-.8.5-2.02.45-1.17-.05-1.74.06-1.95.4-.16.25-.3 1.02-.3 1.7 0 .69-.54 2.83-1.2 4.78-1.14 3.38-1.2 3.72-1.23 7.99-.02 2.45-.05 4.7-.08 5.02-.03.35-.59.8-1.43 1.17a5.13 5.13 0 0 0-2.88 3.08c-.13.43-.57.75-1.2.87l-.99.2.17 2.48c.17 2.49.36 3.1 5.13 16.8 1.53 4.39 2.09 6.82 1.57 6.82-.17 0-1.54-2.54-3.04-5.65zm-3.16-59.89c.43-.23.58-.55.47-.99-.14-.4-.41-.75-.78-.98a1.8 1.8 0 0 0-1.21-.13c-.42.13-.66 0-.8-.46-.12-.36-.42-.65-.68-.65-.25 0-.82.23-1.24.5-.75.5-.8.48-1.17-.34-.35-.77-.42-.8-.62-.27a6.53 6.53 0 0 0-.26 1.76c0 .7.2 1.38.52 1.7.45.45.95.52 2.84.38 1.26-.1 2.58-.33 2.93-.52zm5.41-2.22c.37-1.53.36-1.78-.1-2.23-.47-.47-.55-.47-.94.06-.4.55-.47.53-1.24-.24-.45-.44-1.17-.81-1.6-.81-.82 0-1.8.74-1.8 1.35 0 .57 1.02 1.51 1.64 1.51.3 0 .95.51 1.43 1.14.58.77 1.07 1.1 1.52 1.03.52-.07.77-.48 1.1-1.81zm-8.74-5.64c.18-1.1.42-2.18.72-3.24l.53-1.82.64 1.68c.58 1.54.68 1.64 1.17 1.2.5-.46.5-.7-.08-3.9-.54-3.05-.73-3.56-1.8-4.86-.66-.8-1.61-2.07-2.11-2.84-.87-1.32-.93-1.65-1.09-5.57-.1-2.54-.33-4.46-.58-4.9a6.65 6.65 0 0 1-.35-2.7 6.43 6.43 0 0 0-.69-3.5 5.18 5.18 0 0 0-.92-1.5c-.1.01-.46.48-.8 1.04-.54.85-.88 1.04-2 1.12-1.04.08-1.47.3-1.98 1-.35.5-.64 1-.64 1.1 0 .1.21.2.48.2.34 0 .47.33.48 1.18 0 .66.13 1.4.28 1.64.2.32.67.4 1.61.27l1.33-.18-.2.93c-.12.5-.11 1.38 0 1.93.13.56.83 1.67 1.58 2.47.9.97 1.47 1.96 1.71 2.95.17.62.29 1.24.37 1.88 0 .2-.3 0-.67-.47a5.85 5.85 0 0 0-1.6-1.33c-.87-.45-.97-.44-1.7.29-.5.58-.87 1.26-1.08 2-.5 1.86-1 7.09-.99 10.05.01 1.49.2 3.06.45 3.6l.42.95.5-1.16c.28-.63.66-2.69.83-4.56.18-1.87.47-3.92.64-4.57.28-.83.7-1.6 1.25-2.28l.94-1.12.51 1.2c.28.67.6 1.82.7 2.57.1.75.01 2.21-.2 3.25-.15.76-.33 1.52-.54 2.26-.09.23.21.43.75.49l.9.1-.11 2.86c-.12 2.85-.12 2.87.51 2.3.37-.32.72-1.17.83-2zm15.24-13.73c-.09-.83-.2-1.56-.25-1.62-.05-.06-.46.09-.91.32l-.82.44.97 1.18a8.96 8.96 0 0 0 1.08 1.19c.05 0 .02-.68-.07-1.51zm4.33-9.26c.73-.68 1.32-1.47 1.32-1.76 0-.7-1.31-.69-2.2.04-.37.3-.76 1.09-.87 1.74-.11.7-.06 1.2.11 1.2.17 0 .9-.55 1.64-1.22zm31.34-4.03c1.02-.81 1.42-1.32 1.2-1.54-.2-.2-.47-.18-.8.09-.27.22-.95.35-1.52.28l-1.04-.12v1.5c0 .93.11 1.4.32 1.25l1.84-1.46zm-11.17-4.1c.4-.25.68-.2 1.14.21.64.58 1.87.7 2.56.27.57-.37.35-2.1-.27-2.15-.26-.01-.65-.05-.87-.07-.24-.03-.4-.53-.4-1.24v-1.2l-.63 1.03c-.35.58-.84 1.04-1.09 1.04-.25 0-.8-.13-1.2-.28-.74-.28-.75-.26-.72 1.99.02 1.25.06 2.56.11 2.9.05.39.23.08.46-.76.2-.77.61-1.56.9-1.74zm-43.07-4.77c.3-1.18.3-1.65 0-2-.2-.24-.48-.44-.61-.44-.14 0-.4.67-.58 1.49a4.4 4.4 0 0 0 0 2.28c.17.45.4.67.56.5.14-.16.43-.98.64-1.83zm34.57.75c-.11-.54-.1-1.1.02-1.65.2-.64.25-.66.62-.16.36.5.43.5.82.02.37-.44.33-.69-.24-1.67-.37-.64-.9-1.2-1.16-1.26-.3-.06-.8.45-1.3 1.3a6.16 6.16 0 0 0-.83 1.96c0 .3.42.97.93 1.48.52.51 1.03.93 1.14.93.12 0 .12-.43 0-.95zm9.68 44.08l-.64-1.44 1.37-1.75 1.37-1.76.22 1.26c.25 1.46 1.1 3.22 1.54 3.22.17 0 .3.11.3.25 0 .28-2.66 1.65-3.2 1.65-.18 0-.61-.64-.96-1.43zm19.69-.85c-.77-.21-1.2-.51-1.2-.85 0-.29.22-1.23.48-2.09.27-.86.48-1.68.48-1.83 0-.15-.18-.27-.4-.26-.22 0-1 .78-1.75 1.74-1.19 1.55-1.48 1.75-2.48 1.75h-1.13l.84-1.1c.47-.62.78-1.31.68-1.55-.21-.56-3.87-1.51-6.73-1.77-2.07-.18-2.25-.25-2.53-1.07-.27-.75-.18-1.01.66-1.9.54-.58 2.18-3.4 3.64-6.29 1.84-3.61 3.12-5.72 4.13-6.76 1.13-1.18 1.67-1.52 2.45-1.52h1l-1.39 2.86c-.85 1.75-1.32 3.12-1.22 3.51.15.44.43.82.8 1.1.36.25.8.78 1.01 1.18.3.59.72.78 2.1.96 1.1.13 1.87.41 2.14.78.23.32.33.8.21 1.06-.98 2.32-1.34 3.51-1.06 3.51.18 0 .68-.23 1.1-.51.74-.48.8-.48.8.03 0 .3-.44.95-.96 1.44-.69.64-.95 1.18-.95 1.94v1.04l.96-.93c.81-.78 1.02-.85 1.27-.45.41.64.34 3.38-.12 4.92-.43 1.42-.87 1.59-2.83 1.06zm-23.87-2.07c-.6-.85-1.2-1.7-1.32-1.92-.13-.23.34-.14 1.14.23.75.34 1.69.62 2.09.63.39 0 .71.08.71.18 0 .1-.34.68-.76 1.29l-.75 1.11zm3.38-13.03c-1.72-1.15-2.65-2.05-3.18-3.05-.5-.95-.6-2.16-.18-2.16a11.28 11.28 0 0 1 4.23 3.29c.87 1.2 1.23 2.75.64 2.75-.15 0-.83-.37-1.51-.83zm-31.26-33.7c-.52-.66-.6-1.01-.37-1.45.15-.3.36-.56.61-.77.41-.26 1.02 2.04.7 2.62-.21.37-.4.28-.94-.4zm7.27-13.3c.04-.52.1-1.05.2-1.57.15-.94.38-1.24 1.15-1.51.36-.13.71-.24 1.08-.33.06 0 .1.7.1 1.55 0 1.47-.05 1.59-1 1.91-.4.16-.83.28-1.26.35-.16 0-.28-.17-.27-.4zm36-17.99c-.17-.3-.3-.62-.36-.96 0-.16.3-.69.68-1.16.53-.67.75-.77.96-.44.43.68.3 1.64-.33 2.47l-.6.76zm-22-13.13c0-1.31 1.22-3.6 2-3.75 1.05-.2.94.87-.28 2.56-.66.92-1.32 1.82-1.46 1.98-.15.17-.26-.18-.26-.8zm-2.85-6.43c.3-1.05 1.7-2.46 2.46-2.47.22 0 .76.24 1.2.52.77.5.78.54.23 1.16-.63.71-2.83 1.8-3.65 1.81-.45.01-.49-.15-.24-1.02zm9.53-.38c0-1.06.12-1.45.46-1.45.26 0 .6.25.75.56.39.77-.01 2.12-.67 2.24-.44.1-.54-.15-.54-1.35zm2.23-.18c0-.88.12-1.28.37-1.2.3.15.55.38.72.66.24.39.24.7 0 1.08-.17.28-.42.51-.72.66-.24.09-.37-.32-.37-1.2zm-5.28-4.2c-.49-.93-.49-1.07 0-1.9.3-.51.43-1.08.3-1.3a1.6 1.6 0 0 1-.17-.95c.15-.9-.56-.65-1.15.4-.3.52-.74.95-.99.95-.24 0-.77.36-1.17.8-.42.44-1.1.79-1.56.79h-.81l.8-1.58c.44-.87.8-1.66.8-1.75 0-.1-.21-.17-.48-.17-.26 0-.47-.11-.47-.24s.28-.7.63-1.27c.35-.57.81-1.04 1.03-1.05.23 0 1.4-1.5 2.62-3.34 2.48-3.72 4.46-6.14 4.77-5.83.12.11.07 1.04-.11 2.06a82.68 82.68 0 0 0-.64 5.78c-.24 3.02-.46 4.16-.97 4.98-.56.91-.59 1.1-.18 1.25.74.28.58 1.74-.3 2.6-.42.44-.92.79-1.1.79-.18 0-.56-.45-.85-1.01zm18.97-17.65c0-.15.42-1 .92-1.88 1.03-1.78 3.25-3.96 4.05-3.96.42 0 .49.22.33 1.18-.13.7-.4 1.38-.78 1.97-.5.61-1.06 1.17-1.68 1.66-1.12.9-2.85 1.52-2.84 1.03zm4.98-.9c-.56-.42-.55-.48.2-1.6l.79-1.15.3.9c.21.51.2 1.09 0 1.6-.18.4-.4.71-.51.7-.1 0-.46-.2-.78-.44zm-1.29-10.3c-.09-.14.55-.79 1.42-1.44 1.8-1.34 2.14-.88.52.69-1.05 1.02-1.64 1.24-1.94.75zm-13.77-14.67c.11-1.07.35-2.13.7-3.15.4-.98.71-1.3 1.47-1.45.54-.11 1.53-.77 2.21-1.47.68-.7 1.45-1.28 1.72-1.28.26 0 .47.09.47.2 0 .1-.3.6-.66 1.1-.4.57-.62 1.3-.56 1.86.08.72-.21 1.25-1.37 2.49a9.77 9.77 0 0 0-1.68 2.23c-.11.36-.65.82-1.2 1.01-.54.19-1.06.34-1.14.34-.09 0-.07-.84.04-1.88zm.08-8.03c-.28-.4-.5-.91-.5-1.14 0-.5-.71-.53-1.2-.04-.27.27-.32.2-.2-.3.17-.62.09-.65-1-.48-1.17.2-1.18.18-.79-.57a8.3 8.3 0 0 1 1.04-1.47c.64-.7.64-.7 1.43-.08.44.34.98.63 1.2.63.21 0 .57-.47.8-1.04.22-.57.7-1.37 1.07-1.79l.67-.76-1.08.55c-.83.42-1.13.46-1.32.16-.19-.3-.48-.31-1.28-.03a29 29 0 0 1-1.07.36c-.01 0-.02-.8 0-1.77.02-1.74.06-1.8 2.13-3.9a14.35 14.35 0 0 0 3.18-4.52c.84-1.85 1.53-2.8 3.12-4.26l2.03-1.89.2 1c.13.62-.02 1.65-.4 2.78a7.32 7.32 0 0 0-.5 2.13c.06.18.71-.6 1.45-1.74a12.02 12.02 0 0 0 1.8-4.24c.42-1.97.63-2.34 2.24-3.94l1.77-1.77.63.79c.53.68.67.72.94.32.17-.26.31-.93.31-1.48 0-.75.3-1.26 1.2-2.04.65-.57 2.04-1.6 3.09-2.27a16.2 16.2 0 0 1 6.36-2.36l1.25-.22-.71 1c-.4.55-1.92 2.51-3.4 4.36-1.74 2.18-2.47 3.3-2.05 3.17.35-.11.64-.1.64.02 0 .11-1.12 1.37-2.47 2.8l-2.47 2.57 1.91-1.57c1.05-.87 2.97-2.48 4.25-3.6 1.3-1.1 2.41-1.94 2.5-1.86.08.08-.1.62-.4 1.2-.3.58-3.36 3.79-6.8 7.12-2.59 2.5-5.17 5.04-7.73 7.59-.98 1-2.07 2.7-3.16 4.92a26.27 26.27 0 0 1-2.96 4.8l-1.3 1.4-.15-1.05c-.09-.58-.33-1.1-.54-1.18-.22-.07-.54.4-.74 1.1a4.74 4.74 0 0 1-1.8 2.74c-.66.56-.7.55-1.19-.15zm14.64-8.29c.14-.23 1.44-2.27 2.9-4.53 1.45-2.26 2.64-4.28 2.64-4.5 0-.2 1-1.33 2.24-2.49 2.02-1.9 2.85-2.47 2.85-1.9 0 .1-.51.88-1.14 1.74-.62.86-1 1.56-.84 1.56.42 0 2.92-2.72 4.16-4.54a7.33 7.33 0 0 1 2-2.01 3.33 3.33 0 0 1 2.24-.3c.94.17 1.24.36 1.16.75-.06.33-.48.56-1.13.62-.57.06-1.03.23-1.03.37 0 .14.24.36.55.47.46.18.35.39-.72 1.31-.7.6-2.1 1.62-3.1 2.26-1.48.94-1.8 1.29-1.64 1.78.16.5-.58 1.4-3.5 4.25-2.04 2-3.87 3.63-4.07 3.63-.2 0-1.14.44-2.1.97-.94.54-1.6.8-1.47.56zm5.22-1.17c0-.39 2.17-2.7 5.76-6.14 3.17-3.04 6.15-5.77 6.61-6.07.46-.31 1.11-.56 1.44-.56.49 0 .55.14.36.87a9.9 9.9 0 0 0-.22 2.22c.03 1.2-.1 1.45-1.31 2.42-.73.6-2.72 2.04-4.42 3.2-2.84 1.96-3.09 2.07-3.18 1.42-.1-.64-.27-.55-2.01.98a25 25 0 0 1-2.47 1.98c-.44.23-.56.17-.56-.32zm20.5-6.13c-.09-.16-.07-.59.05-.96.14-.46.1-.6-.15-.45-.2.12-.78-.18-1.3-.67-.84-.8-.94-1.08-.91-2.8.01-1.06.21-2.37.44-2.93.5-1.2 4.73-5.73 5.61-6.01.89-.28 4-4.16 4.48-5.6.22-.66 1.45-2.35 2.74-3.76 1.28-1.4 2.46-2.56 2.62-2.56.67 0 .23 1.3-.98 2.9-1.14 1.52-1.22 1.75-.76 2.09.28.2.42.53.3.72-.11.18-.11.33 0 .33.13 0 .78-.3 1.46-.7.96-.53 1.33-.6 1.62-.31.2.2.48.38.61.38s.32-.28.43-.61c.1-.34 1-1.52 2-2.63 1.48-1.66 1.95-2 2.66-1.92.85.1.88.05 1.26-2.38l.4-2.49 3.46-3.49c2.6-2.61 3.54-3.38 3.75-3.05.2.32.56-.01 1.37-1.28a16 16 0 0 1 2.66-3.02c3.4-2.85 8.43-6.83 8.64-6.83.13 0 1.02-.64 1.98-1.43a9.62 9.62 0 0 1 2.05-1.43c.17 0 .74-.42 1.27-.93a13.3 13.3 0 0 1 2.4-1.7c3.05-1.75 6.05-3.57 9-5.46.84-.56.88-.56.88 0 0 .32-.99 2.59-2.2 5.05-2.16 4.43-2.23 4.52-6.76 9.29a102.81 102.81 0 0 1-7.99 7.56c-1.88 1.5-3.56 2.74-3.74 2.74-.18 0-.32.19-.32.42 0 .59-2.07 2.5-2.59 2.4-.24-.04-1.1.03-1.92.16-.82.13-1.56.42-1.64.65-.09.22-.04.6.1.83.33.54-.93 2.3-1.5 2.09-.23-.1-.65.29-.97.88-.3.57-1.79 2.22-3.3 3.66-1.96 1.86-2.9 2.55-3.28 2.4-.37-.14-1.17.41-2.69 1.83a74.08 74.08 0 0 1-3.5 3.1c-1.03.81-1.3 1.2-1.14 1.7.16.48-.18 1-1.43 2.2-.9.87-1.77 1.5-1.94 1.39-.17-.11-.8.1-1.37.46-.59.36-1.14.58-1.24.48-.09-.1.26-.59.77-1.1.93-.93.97-1.59.08-1.59-.25 0-.45-.28-.45-.63 0-.67-.47-.86-.8-.32-.1.18-.33.32-.5.32-.16 0-.2-.84-.09-2 .2-1.95.2-1.97-.42-1.42-.35.3-.73.55-.85.55-.11 0-.2-.31-.2-.7 0-.49-.34-.14-1.15 1.2a20.65 20.65 0 0 1-1.8 2.6c-.37.4-.52.73-.34.73s.32.53.3 1.19l-.04 1.2 1.22-.1c1.12-.1 1.2-.05 1 .58-.19.59-.12.66.45.48.37-.12.67-.1.67.05 0 .15-.22.6-.5.98-.27.39-.4.85-.3 1.02.3.47-1.31 3.02-2.2 3.5-.45.25-.8.67-.96 1.16-.1.42-.31.76-.46.76-.15 0-.68.32-1.18.71-.93.73-2.55 1.03-2.86.52zM151.1 152.8a18.2 18.2 0 0 1 2.88-2.88c.72-.38.77-.35.77.39 0 .44-.43 1.29-.96 1.9-1.02 1.15-3.76 3.06-4.41 3.06-.21 0 .57-1.12 1.72-2.47zm11.29.83c0-.45.33-1.3.72-1.89.83-1.23 4.29-4.11 4.93-4.11.63 0-1.13 2.35-3.6 4.78-1.89 1.88-2.05 1.97-2.05 1.22zm197.87-2.82c-.89-.54-1.76-1.1-2.63-1.69-.07-.07 1.04-.36 2.48-.65 1.43-.29 2.64-.49 2.67-.45.04.05.17 1.05.3 2.23.11 1.18.1 2.14-.05 2.14-.14 0-1.39-.72-2.77-1.58zM163.97 148c0-.75.33-1.24 1.51-2.26.97-.83 1.83-1.3 2.39-1.3.48 0 .88-.15.88-.34a2.9 2.9 0 0 0-.35-.98c-.28-.53-.22-.73.32-1.11.36-.26.66-.67.66-.93 0-.25.15-.46.33-.46.19 0 .7-.38 1.12-.84.43-.46.78-.71.78-.56 0 .16.29-.18.63-.75.66-1.08 1.41-1.34 1.7-.58.1.24-.03.7-.27 1.03-.83 1.1-.47 1.2.54.15a9.31 9.31 0 0 1 1.64-1.37c.52-.28.6-.25.43.18-.1.3-.03.52.18.52.2 0-.2.58-.89 1.3a88.33 88.33 0 0 1-8.58 7.03c-.7.47-1.66 1.17-2.15 1.54l-.87.68zm3.02-.7c.11-.17.44-.3.74-.3.46 0 .47.04.06.3-.62.4-1.05.4-.8 0zm-24.14-.47c.11-.3 0-.48-.32-.48-.27 0 .86-1.31 2.53-2.92 3.1-3 3.56-3.29 11.43-7.2 1.61-.8 3.18-1.7 4.68-2.68 1.6-1.13 1.88-1.22 2.29-.8.42.41.36.57-.5 1.39a7.9 7.9 0 0 0-1.5 2.05c-.3.67-1.95 2.41-3.98 4.22l-3.45 3.08h-1.8c-1.15 0-2.25.22-3 .6-.63.33-1.3.6-1.98.8-.44.11-1.58.7-2.53 1.31-.95.6-1.8 1.1-1.9 1.1-.08 0-.07-.2.03-.47zm21.76-2.92c0-.12.38-.63.85-1.12.47-.5 1.07-.9 1.33-.9.34 0 .26.23-.3.83-.84.9-1.88 1.56-1.88 1.2zm-.96-2.17c.3-.78.27-.8-1.12-.8-1.2 0-1.42-.1-1.42-.62 0-.34.62-1.12 1.4-1.77 1.18-.96 1.53-1.1 2.06-.81.34.18.82.34 1.05.34.3 0 .4-.4.31-1.4-.1-1.25.02-1.55 1.1-2.74.9-.99 2.42-1.94 5.91-3.7 2.6-1.29 4.88-2.35 5.1-2.35.61 0-2.14 2.64-5.87 5.65-1.89 1.51-3.42 2.87-3.42 3 0 .57.9.2 2.14-.85a6.24 6.24 0 0 1 1.59-1.12c.16 0 .64-.36 1.07-.82 1.04-1.12 3.5-2.9 4.53-3.3.47-.17.85-.27.85-.22 0 .05-1.65 1.44-3.66 3.09-2.54 2.07-3.52 3.05-3.18 3.16.37.13.16.49-.87 1.48-1.73 1.67-6.3 4.57-7.2 4.57-.58 0-.63-.1-.37-.8zm16.24-.77c0-.38 2.3-2.3 2.5-2.09.08.08-.2.53-.62.98-.92.98-1.88 1.55-1.88 1.12zm170.13-1.93c-3.07-.68-5.38-1.9-7-3.68-.95-1.05-15.22-10.3-16.79-10.89-.94-.35-2.49-1.62-5.1-4.2l-3.75-3.68.2-1.37c.16-1.02.08-1.5-.3-1.93-.29-.31-1.36-.98-2.38-1.48-1.37-.66-1.96-1.16-2.23-1.86a3 3 0 0 1-.27-1.04c.04-.05 1.71.33 3.7.83 1.99.5 3.71 1.07 3.83 1.25a67.31 67.31 0 0 0 7.92 8.4c3.53 3.1 11.6 8.93 16.13 11.67a47.84 47.84 0 0 0 5.25 2.77c1.32.5 2.7.88 4.1 1.11 1.16.16 2.8.2 3.64.1 1.4-.2 1.63-.13 2.47.68.5.48.93.99.93 1.12 0 .13-.92.7-2.04 1.24a9.43 9.43 0 0 1-4.53 1.12c-1.38.07-3.08 0-3.78-.16zm-168.34-2.32c.15-.66.48-1.26.96-1.75.43-.39.92-.71 1.08-.71.48 0 .35 1.06-.24 1.92-.58.84-1.38 1.55-1.76 1.57-.12 0-.15-.46-.04-1.03zm-7.34.03c.43-.72 2.68-2.61 2.68-2.25 0 .18-.67.86-1.48 1.53-.82.67-1.36 1-1.2.72zm1.89-.27c.1-.17.48-.31.83-.31s.55.14.44.31c-.1.18-.48.32-.83.32s-.55-.14-.44-.32zm9.07-3.62c0-.24.6-.97 1.35-1.61.75-.64 2-1.79 2.79-2.54 1.72-1.66 3.78-3.2 3.98-2.99.09.09-1.46 1.83-3.43 3.87-3.3 3.43-4.7 4.4-4.7 3.27zm-.64-2.05c0-.78 1.69-2.35 2.28-2.12.3.11 1.06-.47 2.12-1.62.9-1 1.65-1.92 1.65-2.05 0-.48 2-1.94 2.9-2.12.5-.1 1.26-.65 1.72-1.24.95-1.26 4.86-4.13 5.18-3.81.32.32-6.02 6.13-11.01 10.08a60.6 60.6 0 0 1-4.6 3.46c-.13 0-.24-.26-.24-.58zm-12.25-1.48c.92-.77 2.93-1.64 3.19-1.37.07.07-.83.58-2.01 1.15-1.99.95-2.07.97-1.18.22zm6.08-3.06c.48-.37.94-.75 1.4-1.15.08-.1-.65.27-1.62.82a9.3 9.3 0 0 1-2.21 1c-.62 0 1.48-2.14 3.19-3.24.78-.5 2.38-1.2 3.55-1.56 1.17-.34 2.95-.99 3.95-1.44 1.4-.61 1.89-.71 2.08-.4.15.26-.31.8-1.39 1.6a7.64 7.64 0 0 1-2 1.21c-.22 0-1.33.65-2.48 1.43a23.5 23.5 0 0 1-3.7 2.07c-.9.35-1.71.64-1.82.64-.1 0 .37-.44 1.05-.98zm6.3-.8c.1-.27.19-.55.19-.62 0-.06.82-.68 1.83-1.36 1-.69 2.11-1.57 2.46-1.96.47-.48 1-.88 1.6-1.2.92-.47.94-.47.42.12-.34.43-.6.92-.74 1.45-.14.57-.6 1.04-1.38 1.4-.92.47-1.8 1-2.64 1.61a9.07 9.07 0 0 1-1.7 1.07c-.13 0-.15-.23-.04-.5zm7.2-3.8c0-.1.5-.82 1.11-1.57 1.15-1.4 2.56-2.22 3.48-2.03.34.08-.22.66-1.64 1.73-2.46 1.85-2.96 2.16-2.96 1.88zm152.62-6.07c-1.33-.49-2.32-1.25-2-1.56.2-.2 4.4.46 4.4.7 0 .34-.69 1.37-.9 1.35-.12-.01-.8-.23-1.5-.49zm-64.77-2.35a11.7 11.7 0 0 0-2.57-.29c-1.6-.03-1.87-.14-2.92-1.22l-1.17-1.2.62-.8c.33-.43.61-1.1.62-1.49 0-.41-.38-.97-.97-1.38-.54-.38-2.58-1.4-4.54-2.25-2.3-1-3.26-1.55-2.71-1.56.46 0 2.06.45 3.57 1 1.65.6 2.95.9 3.3.76.51-.2.5-.27-.19-.75-.76-.48-1.56-.9-2.39-1.26l-1.64-.73 2.1.13c2.14.14 4.7 1.05 5.86 2.1.35.32 1.21.76 1.91.99.7.22 1.85.8 2.55 1.3.8.54 1.71.92 2.67 1.11l1.4.22-.93.46c-.5.25-1.23.83-1.6 1.28l-.7.83-2.5-1.17c-2.45-1.15-3.6-1.44-3.6-.92 0 .42 1.7 1.88 2.4 2.07l3 .87 2.37.69-1.25.76c-.7.42-1.4.75-1.58.73a7.61 7.61 0 0 1-1.11-.28zm-10.67-18.47c-3.81-.28-7.12-.7-6.68-.83a217 217 0 0 1 7.16-.9 98.99 98.99 0 0 0 11.58-1.98l4.73-1.17 4.02.82 4.02.81-2.83.04c-2.44.03-3.09.16-4.77.98a25.02 25.02 0 0 1-3.86 1.44c-2 .52-7.18 1.13-9.07 1.06-.61-.02-2.54-.14-4.3-.27zm4.26-12.98c.2-.36.27-.88.16-1.16-.1-.27-.53-.59-.95-.7-.42-.1-.76-.29-.76-.42 0-.12 1.1-.47 2.47-.78 1.99-.44 3.69-.53 8.83-.45l6.36.1-5.09 1.64c-2.8.9-5.88 1.73-6.84 1.84-.97.1-2.38.29-3.14.39-1.32.18-1.37.17-1.03-.46zm16.91-4.97c0-.1.87-.62 1.93-1.16 1.85-.93 2.02-.96 3.7-.61.96.2 1.7.41 1.63.47-.06.06-1.46.34-3.13.63-1.66.28-3.27.58-3.57.68-.31.09-.56.08-.56-.01z" style="fill:#888987;stroke-width:.31788278"/>
  <path d="M287.28 489.52c19.7-22.63 29.6-36.22 41.6-57.1a291.82 291.82 0 0 0 30.62-76.5l.38-1.57 3.68.1c4.18.11 10.02 1.04 16.25 2.58 6.98 1.73 7.88 1.8 8.96.72.59-.59.93-1.51.93-2.5 0-1.34-.5-2.12-3.2-5.04-7.42-8-11.07-13.15-14.58-20.56-4.87-10.27-6.36-18.7-5.6-31.5.95-16 6.64-31.38 19.11-51.7 2.28-3.7 4.4-7.22 4.7-7.81.76-1.43.3-3.96-.94-5.29-1.21-1.3-3.67-1.39-9.37-.38a184.1 184.1 0 0 1-20 2.3l-5.48.3-1.9-5.57a289.54 289.54 0 0 0-25-53.45c-6.58-10.86-17.1-25.96-21.77-31.28a151.79 151.79 0 0 1-4.53-5.6 218.96 218.96 0 0 0-6.86-8.3c-2.16-2.47-3.73-4.56-3.5-4.64.7-.24 25.1 8.07 39.38 13.4 32.42 12.12 55.97 22.33 84.72 36.71 22.42 11.22 36.29 19 42.47 23.85l2.42 1.9-.21 7.77c-1.13 42.42-5.65 73.84-15.24 105.95a194.42 194.42 0 0 1-14.33 35.8c-22.48 43.49-65.36 87.94-119.94 124.3-8.74 5.83-23.29 14.83-23.96 14.83-.17 0 .37-.78 1.2-1.72z" style="fill:#a5272f;stroke:#a5272f;stroke-width:.44821471"/>
  <path d="M295.2 472.36c-11.6-6.1-27.1-16.28-40.08-26.32a386.73 386.73 0 0 1-18.84-15.79 397.4 397.4 0 0 1-22.46-22.5 435.46 435.46 0 0 1-7.8-9.07 330.78 330.78 0 0 1-15.33-20.22 283.77 283.77 0 0 1-15.63-25.79c-3.94-7.41-8.46-18.1-11.88-28.14-3.73-10.9-7.01-23.04-9.52-35.22a428.2 428.2 0 0 1-6.04-39.96c-1.37-13.67-2.4-31.94-2.4-42.7v-4.17l4.21-2.34a595.1 595.1 0 0 1 14.73-7.63 646.76 646.76 0 0 1 43.3-20.2 711.83 711.83 0 0 1 43.78-17.04 967.24 967.24 0 0 1 38.05-12.55c11.25-3.32 11.44-3.38 11.65-3.14l1.83 2.23 1.63 2-2.61 2.28c-3.67 3.18-10 9.62-13.73 13.95a197.32 197.32 0 0 0-19.43 27.63 235.65 235.65 0 0 0-18.7 41.45 249.15 249.15 0 0 0-6.5 22.13c-1.13 4.58-1.55 5.83-2.13 6.28-1.12.88-9.28 4.85-12.82 6.24-1.75.7-4.83 1.8-6.85 2.44a136.8 136.8 0 0 1-15.58 3.83 27.1 27.1 0 0 0-4.05.96 4.3 4.3 0 0 0-1.7 1.5 4.54 4.54 0 0 0-.64 1.93c0 .5.2 1.3.46 1.79s.8 1.1 1.21 1.38c.42.27 2.47 1.1 4.56 1.83a98.95 98.95 0 0 1 13.88 5.93c4.78 2.42 11.7 6.83 15.06 9.59l1.9 1.56-.09 7.3c-.04 4.02.07 9.95.27 13.2a233 233 0 0 0 2.74 24.2 264.77 264.77 0 0 0 17.4 59.53A308.36 308.36 0 0 0 268 423.46a258.02 258.02 0 0 0 10.04 16.53 222.18 222.18 0 0 0 11.75 15.68c1.46 1.75 5.13 5.68 8.16 8.73l5.52 5.54-1.8 2.34a15.43 15.43 0 0 1-2 2.33c-.1 0-2.12-1.01-4.47-2.25z" style="fill:#1d3d57;stroke-width:.31788278"/>
  <path d="M307.62 383c-3.9-.64-10.83-2.15-20.06-4.4a661.16 661.16 0 0 0-15.6-3.63c-5.44-1.12-10.83-1.95-12.78-1.96a4.9 4.9 0 0 1-1.78-.25c-.3-.2-.11-.95.73-3.1a83.44 83.44 0 0 0 4.91-20.05c.47-4.22.4-11.7-.17-15.98a60.44 60.44 0 0 0-5.54-19.04 80.16 80.16 0 0 0-3.44-6.44 86.31 86.31 0 0 0-3.61-5.25 86.4 86.4 0 0 0-6.31-6.94 88.04 88.04 0 0 0-7.75-6.85c-2.23-1.64-4.51-3.2-6.84-4.69-3.91-2.44-11.51-6.27-16.08-8.08-1.7-.68-3.1-1.3-3.1-1.4 0-.1 1.2-.42 2.69-.72 3.93-.81 11.12-2.93 15.56-4.58a116.43 116.43 0 0 0 17.56-8.53 94.25 94.25 0 0 0 18.3-14.7 103.99 103.99 0 0 0 15.14-20.58c2.52-4.43 5.8-11.67 8.13-17.96l1.68-4.52 2.08 3.4c4.08 6.7 7.36 10.85 12.5 15.83a78.73 78.73 0 0 0 5.22 4.65 66.34 66.34 0 0 0 11.05 6.8 80.42 80.42 0 0 0 7.9 3.15c2.35.78 5.72 1.71 7.48 2.07 1.74.35 4.97.9 7.16 1.2 3.02.43 6.04.56 12.58.54 6.7-.01 9.85-.17 14.32-.7 3.36-.4 6.7-.88 10.04-1.44a49.2 49.2 0 0 1 4.4-.67c.06.06-.6 1.15-1.46 2.44a172.32 172.32 0 0 0-13.57 24.94 131.2 131.2 0 0 0-5.63 16.36c-1.19 4.7-2.03 9.49-2.53 14.32-.41 4.58-.41 9.2 0 13.78a75.24 75.24 0 0 0 2.4 12.57 70.51 70.51 0 0 0 7.23 16.3 87.07 87.07 0 0 0 7.63 10.44c.71.78 1.24 1.47 1.17 1.54-.07.07-1.41-.15-2.99-.48a103.36 103.36 0 0 0-23.81-2.07c-2.6.12-6.58.49-8.86.82-2.63.4-5.23.93-7.8 1.58-8.83 2.36-15.3 5.91-20.25 11.11a19.86 19.86 0 0 0-4.17 5.82 29.1 29.1 0 0 0-2 5.5c-.4 1.86-.5 3.36-.37 5.73.1 1.77.28 3.46.4 3.77.23.58 0 .62-1.76.34z" style="fill:#1d3d57;fill-opacity:1;stroke-width:.31788278"/>
</svg>
